<svg xmlns="http://www.w3.org/2000/svg" width="638.788" height="519.382" viewBox="0 0 638.788 519.382">
  <g id="Novelist_writing-bro" data-name="Novelist writing-bro" transform="translate(-14.176 -41.261)">
    <g id="freepik--background-simple--inject-257" transform="translate(14.67 41.261)">
      <path id="Path_1692" data-name="Path 1692" d="M435.052,51.956S332.431,17.457,231.7,72.383,80.131,236.325,36.442,323.733,17.952,499.944,94.851,540.457s129.189-19.21,237.07-22.115,136.864,11.673,226.4-45.956,105.694-193.721,35.088-294.362S435.052,51.956,435.052,51.956Z" transform="translate(-14.531 -41.261)" fill="#92e3a9"/>
      <path id="Path_1693" data-name="Path 1693" d="M435.052,51.956S332.431,17.457,231.7,72.383,80.131,236.325,36.442,323.733,17.952,499.944,94.851,540.457s129.189-19.21,237.07-22.115,136.864,11.673,226.4-45.956,105.694-193.721,35.088-294.362S435.052,51.956,435.052,51.956Z" transform="translate(-14.531 -41.261)" fill="#fff" opacity="0.7"/>
      <line id="Line_7" data-name="Line 7" x2="637.8" transform="translate(0 518.849)" fill="none" stroke="#263238" stroke-linecap="round" stroke-linejoin="round" stroke-width="0.988"/>
    </g>
    <g id="freepik--Pictures--inject-257" transform="translate(109.039 168.762)">
      <rect id="Rectangle_155" data-name="Rectangle 155" width="127.7" height="181.121" fill="#263238" stroke="#263238" stroke-linecap="round" stroke-linejoin="round" stroke-width="0.952"/>
      <rect id="Rectangle_156" data-name="Rectangle 156" width="107.264" height="152.142" transform="translate(10.225 14.477)" fill="#fff" stroke="#263238" stroke-linecap="round" stroke-linejoin="round" stroke-width="0.952"/>
      <ellipse id="Ellipse_253" data-name="Ellipse 253" cx="12.13" cy="11.47" rx="12.13" ry="11.47" transform="translate(52.357 21.735)" fill="#92e3a9"/>
      <line id="Line_8" data-name="Line 8" x2="53.632" transform="translate(35.759 55.535)" fill="none" stroke="#263238" stroke-miterlimit="10" stroke-width="0.952"/>
      <line id="Line_9" data-name="Line 9" x2="53.632" transform="translate(35.759 143.679)" fill="none" stroke="#263238" stroke-miterlimit="10" stroke-width="0.952"/>
      <line id="Line_10" data-name="Line 10" x2="90.666" transform="translate(19.161 84.515)" fill="none" stroke="#263238" stroke-miterlimit="10" stroke-width="0.952"/>
      <line id="Line_11" data-name="Line 11" x2="90.666" transform="translate(19.161 92.965)" fill="none" stroke="#263238" stroke-miterlimit="10" stroke-width="0.952"/>
      <line id="Line_12" data-name="Line 12" x2="90.666" transform="translate(19.161 101.415)" fill="none" stroke="#263238" stroke-miterlimit="10" stroke-width="0.952"/>
      <line id="Line_13" data-name="Line 13" x2="90.666" transform="translate(19.161 109.878)" fill="none" stroke="#263238" stroke-miterlimit="10" stroke-width="0.952"/>
      <line id="Line_14" data-name="Line 14" x2="90.666" transform="translate(19.161 118.328)" fill="none" stroke="#263238" stroke-miterlimit="10" stroke-width="0.952"/>
    </g>
    <g id="freepik--Plants--inject-257" transform="translate(29.17 357.318)">
      <path id="Path_1694" data-name="Path 1694" d="M58.2,446.252s.832-27.99-.215-52.021,1.06-75.671,1.06-75.671" transform="translate(-14.464 -282.78)" fill="none" stroke="#263238" stroke-miterlimit="10" stroke-width="0.988"/>
      <line id="Line_15" data-name="Line 15" x1="11.566" y1="8.59" transform="translate(32.531 57.515)" fill="none" stroke="#263238" stroke-miterlimit="10" stroke-width="0.988"/>
      <line id="Line_16" data-name="Line 16" y1="6.306" x2="4.106" transform="translate(43.976 65.724)" fill="none" stroke="#263238" stroke-miterlimit="10" stroke-width="0.988"/>
      <line id="Line_17" data-name="Line 17" y1="8.032" x2="10.265" transform="translate(43.037 88.892)" fill="none" stroke="#263238" stroke-miterlimit="10" stroke-width="0.988"/>
      <line id="Line_18" data-name="Line 18" x1="5.421" y1="4.657" transform="translate(39.159 41.68)" fill="none" stroke="#263238" stroke-miterlimit="10" stroke-width="0.988"/>
      <line id="Line_19" data-name="Line 19" x1="6.776" y1="6.89" transform="translate(36.154 94.399)" fill="none" stroke="#263238" stroke-miterlimit="10" stroke-width="0.988"/>
      <line id="Line_20" data-name="Line 20" x1="14.129" y1="12.18" transform="translate(29.404 116.121)" fill="none" stroke="#263238" stroke-miterlimit="10" stroke-width="0.988"/>
      <path id="Path_1695" data-name="Path 1695" d="M58.19,404.288a87.435,87.435,0,0,0,10.466-4.619" transform="translate(-14.294 -260.977)" fill="none" stroke="#263238" stroke-miterlimit="10" stroke-width="0.988"/>
      <path id="Path_1696" data-name="Path 1696" d="M59.785,346.389c-5.662-4.149-24.662-3.413-28.366,5.24s7.917,22.585,19.134,21.57c4.388-.393,6.28-.685,8.051-2.994h0L42.918,355.79l16.907,12.853a12.113,12.113,0,0,0,1.167-2.626,19.458,19.458,0,0,0,.523-2.055C62.6,358.823,65.085,350.258,59.785,346.389Z" transform="translate(-23.685 -275.957)" fill="#92e3a9"/>
      <path id="Path_1697" data-name="Path 1697" d="M85.246,338a.487.487,0,0,1-.067.292c-1.53,6.42-9.285,10.062-15.806,9.516a16.62,16.62,0,0,1-2.684-.457A16.844,16.844,0,0,0,65,362.907a10.061,10.061,0,0,0,1.114,2.03c1.972-1.484,22.489-18.055,22.489-18.055L67.253,366.32c6.414,6.509,21.536,5.621,26.836-6.458S92.666,339.726,85.246,338Z" transform="translate(-12.367 -277.554)" fill="#92e3a9"/>
      <path id="Path_1698" data-name="Path 1698" d="M77.3,320.43c-11.07-2.3-20.972,2.449-20.785,13.373a17.233,17.233,0,0,0,6.145,12.878l11.3-14.807-9.594,16.05a16.854,16.854,0,0,0,2.845,1.447,16.52,16.52,0,0,0,4.4,1c6.508.533,14.277-3.109,15.806-9.529C89.13,333.625,88.365,322.726,77.3,320.43Z" transform="translate(-14.869 -282.429)" fill="#92e3a9"/>
      <path id="Path_1699" data-name="Path 1699" d="M66.846,290.36s-1.141.317-8.225,3.591-12.68,13.881-7.031,22.94c3.18,5.164,6.87,7.118,9.473,7.841L63.894,298.7l-1.141,26.378a7.767,7.767,0,0,0,1.61,0c4.6-.457,11.888-5.659,12.573-16.329S66.846,290.36,66.846,290.36Z" transform="translate(-17.342 -290.36)" fill="#92e3a9"/>
      <path id="Path_1700" data-name="Path 1700" d="M39.275,309.661l21.362,16.152a5.22,5.22,0,0,0,.2-2.271c-.98-9.25-10.734-14.6-17.175-16.494s-10.909,1.51-6.776,10.366S51.9,330.482,56.746,329.2a5.724,5.724,0,0,0,2.965-1.776Z" transform="translate(-22.122 -286.01)" fill="#92e3a9"/>
      <path id="Path_1701" data-name="Path 1701" d="M55.9,327.241c-4.616.14-12.076-2.969-16.437-8.97-4.482-.089-8.2,1.916-9.393,7.232-2.174,9.643,5.193,19.743,15.82,18.5,4.643-.533,7.326-2.043,8.856-3.565L35.73,324.044,56.071,338.7a5.831,5.831,0,0,0,.738-2.22,15.178,15.178,0,0,0-.912-9.237Z" transform="translate(-24.037 -282.858)" fill="#92e3a9"/>
      <path id="Path_1702" data-name="Path 1702" d="M57.215,369.561a17.257,17.257,0,0,1-5.448,1.269c-6.951.533-14.035-4.542-17.537-10.62-4.267.647-7.675,2.817-8.494,7.219-2.107,11.28,8.936,26.15,20.127,23.8a16.276,16.276,0,0,0,7.769-3.73L29.212,365.349l25.776,20.669a12.57,12.57,0,0,0,2.751-6.179,13.329,13.329,0,0,0-.523-10.277Z" transform="translate(-25.476 -271.584)" fill="#92e3a9"/>
      <path id="Path_1703" data-name="Path 1703" d="M92.446,386.72c-8.185-8.97-17.94-.939-17.94-.939s-5.984,1.865-8.239,9.871a11.708,11.708,0,0,0,.3,7.384l24.649-13.551L67.166,404.33c2.241,4.022,7.138,6.484,13.834,4.707C91.855,406.132,100.644,395.69,92.446,386.72Z" transform="translate(-11.691 -265.6)" fill="#92e3a9"/>
      <rect id="Rectangle_157" data-name="Rectangle 157" width="34.109" height="47.758" transform="translate(26.224 155.022)" fill="#263238"/>
    </g>
    <g id="freepik--Window--inject-257" transform="translate(308.324 77.636)">
      <path id="Path_1704" data-name="Path 1704" d="M385.409,81.63H238.026l-1.946,19.159H385.409Z" transform="translate(-232.645 -66.785)" fill="none" stroke="#263238" stroke-miterlimit="10" stroke-width="0.948"/>
      <path id="Path_1705" data-name="Path 1705" d="M385.409,96.73H238.026l-1.946,19.159H385.409Z" transform="translate(-232.645 -62.726)" fill="none" stroke="#263238" stroke-miterlimit="10" stroke-width="0.948"/>
      <path id="Path_1706" data-name="Path 1706" d="M385.409,111.83H238.026l-1.946,19.159H385.409Z" transform="translate(-232.645 -58.667)" fill="none" stroke="#263238" stroke-miterlimit="10" stroke-width="0.948"/>
      <path id="Path_1707" data-name="Path 1707" d="M385.409,126.93H238.026l-1.946,19.159H385.409Z" transform="translate(-232.645 -54.608)" fill="none" stroke="#263238" stroke-miterlimit="10" stroke-width="0.948"/>
      <path id="Path_1708" data-name="Path 1708" d="M385.409,142.03H238.026l-1.946,19.159H385.409Z" transform="translate(-232.645 -50.549)" fill="none" stroke="#263238" stroke-miterlimit="10" stroke-width="0.948"/>
      <path id="Path_1709" data-name="Path 1709" d="M385.409,157.13H238.026l-1.946,19.159H385.409Z" transform="translate(-232.645 -46.491)" fill="none" stroke="#263238" stroke-miterlimit="10" stroke-width="0.948"/>
      <path id="Path_1710" data-name="Path 1710" d="M385.409,172.23H238.026l-1.946,19.159H385.409Z" transform="translate(-232.645 -42.432)" fill="none" stroke="#263238" stroke-miterlimit="10" stroke-width="0.948"/>
      <path id="Path_1711" data-name="Path 1711" d="M385.409,187.33H238.026l-1.946,19.159H385.409Z" transform="translate(-232.645 -38.373)" fill="none" stroke="#263238" stroke-miterlimit="10" stroke-width="0.948"/>
      <path id="Path_1712" data-name="Path 1712" d="M385.409,202.43H238.026l-1.946,19.159H385.409Z" transform="translate(-232.645 -34.314)" fill="none" stroke="#263238" stroke-miterlimit="10" stroke-width="0.948"/>
      <path id="Path_1713" data-name="Path 1713" d="M385.409,217.53H238.026l-1.946,19.159H385.409Z" transform="translate(-232.645 -30.255)" fill="none" stroke="#263238" stroke-miterlimit="10" stroke-width="0.948"/>
      <path id="Path_1714" data-name="Path 1714" d="M385.409,232.63H238.026l-1.946,19.159H385.409Z" transform="translate(-232.645 -26.196)" fill="none" stroke="#263238" stroke-miterlimit="10" stroke-width="0.948"/>
      <path id="Path_1715" data-name="Path 1715" d="M385.409,247.73H238.026l-1.946,19.159H385.409Z" transform="translate(-232.645 -22.137)" fill="none" stroke="#263238" stroke-miterlimit="10" stroke-width="0.948"/>
      <path id="Path_1716" data-name="Path 1716" d="M385.409,262.83H238.026l-1.946,19.159H385.409Z" transform="translate(-232.645 -18.078)" fill="none" stroke="#263238" stroke-miterlimit="10" stroke-width="0.948"/>
      <path id="Path_1717" data-name="Path 1717" d="M385.409,277.93H238.026l-1.946,19.159H385.409Z" transform="translate(-232.645 -14.019)" fill="none" stroke="#263238" stroke-miterlimit="10" stroke-width="0.948"/>
      <path id="Path_1718" data-name="Path 1718" d="M385.409,293.03H238.026l-1.946,19.159H385.409Z" transform="translate(-232.645 -9.96)" fill="none" stroke="#263238" stroke-miterlimit="10" stroke-width="0.948"/>
      <path id="Path_1719" data-name="Path 1719" d="M498.32,81.63H350.936l-1.946,19.159H498.32Z" transform="translate(-194.052 -66.785)" fill="none" stroke="#263238" stroke-miterlimit="10" stroke-width="0.948"/>
      <path id="Path_1720" data-name="Path 1720" d="M498.32,96.73H350.936l-1.946,19.159H498.32Z" transform="translate(-194.052 -62.726)" fill="none" stroke="#263238" stroke-miterlimit="10" stroke-width="0.948"/>
      <path id="Path_1721" data-name="Path 1721" d="M498.32,111.83H350.936l-1.946,19.159H498.32Z" transform="translate(-194.052 -58.667)" fill="none" stroke="#263238" stroke-miterlimit="10" stroke-width="0.948"/>
      <path id="Path_1722" data-name="Path 1722" d="M498.32,126.93H350.936l-1.946,19.159H498.32Z" transform="translate(-194.052 -54.608)" fill="none" stroke="#263238" stroke-miterlimit="10" stroke-width="0.948"/>
      <path id="Path_1723" data-name="Path 1723" d="M498.32,142.03H350.936l-1.946,19.159H498.32Z" transform="translate(-194.052 -50.549)" fill="none" stroke="#263238" stroke-miterlimit="10" stroke-width="0.948"/>
      <path id="Path_1724" data-name="Path 1724" d="M498.32,157.13H350.936l-1.946,19.159H498.32Z" transform="translate(-194.052 -46.491)" fill="none" stroke="#263238" stroke-miterlimit="10" stroke-width="0.948"/>
      <path id="Path_1725" data-name="Path 1725" d="M498.32,172.23H350.936l-1.946,19.159H498.32Z" transform="translate(-194.052 -42.432)" fill="none" stroke="#263238" stroke-miterlimit="10" stroke-width="0.948"/>
      <path id="Path_1726" data-name="Path 1726" d="M498.32,187.33H350.936l-1.946,19.159H498.32Z" transform="translate(-194.052 -38.373)" fill="none" stroke="#263238" stroke-miterlimit="10" stroke-width="0.948"/>
      <path id="Path_1727" data-name="Path 1727" d="M498.32,202.43H350.936l-1.946,19.159H498.32Z" transform="translate(-194.052 -34.314)" fill="none" stroke="#263238" stroke-miterlimit="10" stroke-width="0.948"/>
      <path id="Path_1728" data-name="Path 1728" d="M498.32,217.53H350.936l-1.946,19.159H498.32Z" transform="translate(-194.052 -30.255)" fill="none" stroke="#263238" stroke-miterlimit="10" stroke-width="0.948"/>
      <path id="Path_1729" data-name="Path 1729" d="M498.32,232.63H350.936l-1.946,19.159H498.32Z" transform="translate(-194.052 -26.196)" fill="none" stroke="#263238" stroke-miterlimit="10" stroke-width="0.948"/>
      <path id="Path_1730" data-name="Path 1730" d="M498.32,247.73H350.936l-1.946,19.159H498.32Z" transform="translate(-194.052 -22.137)" fill="none" stroke="#263238" stroke-miterlimit="10" stroke-width="0.948"/>
      <path id="Path_1731" data-name="Path 1731" d="M498.32,262.83H350.936l-1.946,19.159H498.32Z" transform="translate(-194.052 -18.078)" fill="none" stroke="#263238" stroke-miterlimit="10" stroke-width="0.948"/>
      <path id="Path_1732" data-name="Path 1732" d="M498.32,277.93H350.936l-1.946,19.159H498.32Z" transform="translate(-194.052 -14.019)" fill="none" stroke="#263238" stroke-miterlimit="10" stroke-width="0.948"/>
      <path id="Path_1733" data-name="Path 1733" d="M498.32,293.03H350.936l-1.946,19.159H498.32Z" transform="translate(-194.052 -9.96)" fill="none" stroke="#263238" stroke-miterlimit="10" stroke-width="0.948"/>
      <rect id="Rectangle_158" data-name="Rectangle 158" width="311.648" height="14.452" fill="none" stroke="#263238" stroke-miterlimit="10" stroke-width="0.948"/>
      <line id="Line_21" data-name="Line 21" y2="254.547" transform="translate(311.648 14.464)" fill="none" stroke="#263238" stroke-miterlimit="10" stroke-width="0.948"/>
      <line id="Line_22" data-name="Line 22" y2="174.638" transform="translate(308.253 14.87)" fill="none" stroke="#263238" stroke-miterlimit="10" stroke-width="0.948"/>
      <rect id="Rectangle_159" data-name="Rectangle 159" width="4.186" height="6.484" transform="translate(309.662 268.44)" fill="#263238" stroke="#263238" stroke-miterlimit="10" stroke-width="0.948"/>
      <rect id="Rectangle_160" data-name="Rectangle 160" width="4.186" height="6.484" transform="translate(305.891 188.125)" fill="#263238" stroke="#263238" stroke-miterlimit="10" stroke-width="0.948"/>
    </g>
    <g id="freepik--Character--inject-257" transform="translate(193.539 155.645)">
      <path id="Path_1734" data-name="Path 1734" d="M464.568,475.879c5.367-15.835,27.024-81.419,27.024-96.543,0-17.218-6.454-19.438-18.785-22.838s-114.55-1.662-126.881,1.117-17.631,13.957-19.98,23.891c-2.12,9.021-21.925,80.417-25.776,94.31Z" transform="translate(-95.953 -71.413)" fill="#fff" stroke="#263238" stroke-linecap="round" stroke-linejoin="round" stroke-width="0.988"/>
      <path id="Path_1735" data-name="Path 1735" d="M430.7,475.25c5.367-15.835,27.024-81.419,27.024-96.543,0-15.429-5.193-18.816-15.162-21.747l-.107.089s-11.164-1.662-14.693,10c-2.791,9.237-21.026,79.364-28.513,108.2Z" transform="translate(-62.087 -70.784)" fill="#263238" stroke="#263238" stroke-linecap="round" stroke-linejoin="round" stroke-width="0.988"/>
      <path id="Path_1736" data-name="Path 1736" d="M167.733,384.543s10.734,10.15,19.51,13.17,19.04-1.269,19.04-1.269-6.508-17.573-21.375-25.477S164.016,375.763,167.733,384.543Z" transform="translate(-141.587 -67.688)" fill="#fff" stroke="#263238" stroke-linecap="round" stroke-linejoin="round" stroke-width="0.988"/>
      <path id="Path_1737" data-name="Path 1737" d="M163.439,371.45s-19.04,22.394-14.867,25.465,15.323-14.921,16.719-15.809S169.478,371.881,163.439,371.45Z" transform="translate(-147.974 -66.889)" fill="#fff" stroke="#263238" stroke-linecap="round" stroke-linejoin="round" stroke-width="0.988"/>
      <path id="Path_1738" data-name="Path 1738" d="M169.21,366.55s-6.508-3.083-9.285,0-1.342,13.17-.939,20.631,1.865,18.892,6.508,16.253,4.186-23.714,4.186-28.548A69.721,69.721,0,0,0,169.21,366.55Z" transform="translate(-144.46 -68.575)" fill="#fff" stroke="#263238" stroke-linecap="round" stroke-linejoin="round" stroke-width="0.988"/>
      <path id="Path_1739" data-name="Path 1739" d="M180.032,367.277s-8.373-3.946-12.076-3.071-4.656,22.839-4.656,30.3,6.038,11.863,7.9,8.793,3.717-25.922,5.112-29.436a31.832,31.832,0,0,1,3.717-6.585Z" transform="translate(-142.736 -68.87)" fill="#fff" stroke="#263238" stroke-linecap="round" stroke-linejoin="round" stroke-width="0.988"/>
      <path id="Path_1740" data-name="Path 1740" d="M282.379,403.681s-2.321-3.514-20.892-7.029S217.825,387,215.034,385.677s-25.145-16.672-31.64-20.2-9.3,1.269-10.734,6.141-6.038,27.228-5.582,29.424,4.643,5.278,6.038,2.208,7.434-20.643,7.9-22.407,15.323,14.058,19.04,17.573,7.89,5.71,13,5.71a68.2,68.2,0,0,0,8.359-.444S272.5,435.744,281.8,439.69s17.175-.876,18.1-3.5,1.865-18.448-3.247-24.107S282.379,403.681,282.379,403.681Z" transform="translate(-141.456 -68.822)" fill="#fff" stroke="#263238" stroke-linecap="round" stroke-linejoin="round" stroke-width="0.988"/>
      <path id="Path_1741" data-name="Path 1741" d="M200.648,380.588a66.585,66.585,0,0,1-18.114-5.71c-8.829-4.39-12.546,1.764-8.829,6.6s15.323,6.141,15.323,6.141,6.977,10.544,16.732,13.183a17.494,17.494,0,0,0,16.249-3.959" transform="translate(-139.669 -66.372)" fill="#fff" stroke="#263238" stroke-linecap="round" stroke-linejoin="round" stroke-width="0.988"/>
      <path id="Path_1742" data-name="Path 1742" d="M268.469,340.582s-17.189,54.457-12.546,58.847,20.436,15.365,22.811,12.688,9.285-24.6,9.285-37.328S271.716,332.677,268.469,340.582Z" transform="translate(-111.349 -75.544)" fill="#92e3a9" stroke="#263238" stroke-linecap="round" stroke-linejoin="round" stroke-width="0.988"/>
      <path id="Path_1743" data-name="Path 1743" d="M286.263,396.929S269.088,383.315,263.452,382s-6.038-1.751-10.211,5.278-5.568,10.15-1.852,12.688,16.719,19.324,25.078,20.643S287.2,409.668,286.263,396.929Z" transform="translate(-113.364 -64.265)" fill="#92e3a9" stroke="#263238" stroke-linecap="round" stroke-linejoin="round" stroke-width="0.988"/>
      <path id="Path_1744" data-name="Path 1744" d="M251.27,509.094H432.977c1.516-5.507,12.2-44.662,16.1-63.021,4.186-19.755,11.62-89.146,11.62-100.565s-.47-40.6-7.9-52.021-38.08-35.133-57.59-44.408-34.887-17.129-45.044-18-47.379,28.1-59.039,53.582c0,0-22.811,15.809-24.622,25.909s-1.852,22.141,2.791,44.979,6.535,37.848,6.535,37.848-17.189,48.291-19.55,68.059C254.2,479.442,251.7,504.7,251.27,509.094Z" transform="translate(-112.668 -104.628)" fill="#92e3a9" stroke="#263238" stroke-linecap="round" stroke-linejoin="round" stroke-width="0.988"/>
      <path id="Path_1745" data-name="Path 1745" d="M277.556,300.363s-5.112,5.38-1.141,5.38,9.1-6.991,13.646-5.38,18.181,10.747,18.181,10.747,7.393,4.847,9.661,3.235,15.35-16.659,22.744-13.487,15.337,11.825,16.477,7.524-7.393-24.729-10.8-34.4-39.208-15.048-52.33-4.3S277.556,300.363,277.556,300.363Z" transform="translate(-104.589 -95.835)" fill="#263238" stroke="#263238" stroke-linecap="round" stroke-linejoin="round" stroke-width="0.988"/>
      <path id="Path_1746" data-name="Path 1746" d="M312.843,306.32s-4.8,2.7-4.8,21.151a325.367,325.367,0,0,0,2.321,36.453s-4.173,1.269-3.7,3.946,6.964,3.083,6.964,3.083-31.116,67.246-32.982,105.4" transform="translate(-102.629 -84.396)" fill="none" stroke="#263238" stroke-linecap="round" stroke-linejoin="round" stroke-width="0.988"/>
      <path id="Path_1747" data-name="Path 1747" d="M325.15,348.778c2-.114,3.931-.178,5.77-.178" transform="translate(-87.415 -73.032)" fill="none" stroke="#263238" stroke-linecap="round" stroke-linejoin="round" stroke-width="0.988"/>
      <path id="Path_1748" data-name="Path 1748" d="M284.1,357.668s26.031-6.344,47.9-8.488" transform="translate(-101.446 -72.876)" fill="none" stroke="#263238" stroke-linecap="round" stroke-linejoin="round" stroke-width="0.988"/>
      <path id="Path_1749" data-name="Path 1749" d="M293.45,361.169s29.721-6.154,50.626-7.029" transform="translate(-98.25 -71.542)" fill="none" stroke="#263238" stroke-linecap="round" stroke-linejoin="round" stroke-width="0.988"/>
      <path id="Path_1750" data-name="Path 1750" d="M287.676,283.41s-4.71,12-9.057,20.91-10.869,13.7-6.883,14.046,17.027-9.592,20.288-12.688,9.782,7.194,12.331,10.963,10.144,13.7,11.955,13.018,21.375-24.665,25-28.091,13.056,17.471,18.49,21.57,3.261-4.453,2.536-9.592-3.623-46.946-7.246-66.13-15.954-27.076-22.475-27.761-17.443,0-23.911,7.879S287.676,283.41,287.676,283.41Z" transform="translate(-106.096 -107.747)" fill="#92e3a9" stroke="#263238" stroke-linecap="round" stroke-linejoin="round" stroke-width="0.988"/>
      <path id="Path_1751" data-name="Path 1751" d="M286.432,287.894s13.418,15.416,17.443,27.749,7.608,19.54,9.393,15.416,17.443-44.89,18.477-64.074-.362-27.761-2.536-33.928-9.057-21.24-9.057-21.24-13.042-1.37-17.028,7.194-11.969,40.437-16.316,50.752a22.825,22.825,0,0,0-.376,18.131Z" transform="translate(-101.228 -109.821)" fill="#fff" stroke="#263238" stroke-linecap="round" stroke-linejoin="round" stroke-width="0.988"/>
      <path id="Path_1752" data-name="Path 1752" d="M317.3,231.118l-13.244-10-7.863,16.342c-3.368,11.419-6.951,23.993-9.393,29.753a22.825,22.825,0,0,0-.362,18.169,132.863,132.863,0,0,1,12.184,16.786C312.467,276.4,317.3,231.118,317.3,231.118Z" transform="translate(-101.232 -107.298)" fill="#263238" stroke="#263238" stroke-linecap="round" stroke-linejoin="round" stroke-width="0.988"/>
      <path id="Path_1753" data-name="Path 1753" d="M225.454,178.7s-8.386,22.915-2.335,32.989,18.638,21.57,24.7,36.567,12.573,29.956,11.647,40.526-.939,23.359,6.521,29.525,27.95,5.722,43.327-5.291,16.37-33.877,16.37-33.877S338.662,260.2,339.1,251.783s.47-16.3.47-16.3,13.512-9.25,13.512-25.985S346.1,192.3,346.1,192.3a39.527,39.527,0,0,1-9.393-18.943c-2.321-11.889-6.052-24.666-17.229-28.193s-39.14,3.527-56.839,13.221S225.454,178.7,225.454,178.7Z" transform="translate(-123.04 -127.963)" fill="#fff" stroke="#263238" stroke-linecap="round" stroke-linejoin="round" stroke-width="0.988"/>
      <path id="Path_1754" data-name="Path 1754" d="M254.381,188.315a17.718,17.718,0,0,0-18.168-3.083c-11.191,3.971-12.586,16.748-12.586,16.748s-8.856-3.083-8.856-7.93v-7.93s-8.843,7.042-6.521,13.208a17.176,17.176,0,0,0,8.856,8.818s-17.7-.888-23.294-10.15,5.126-18.5,5.126-18.5l-6.065-.393s6.535-8.805,15.847-11.013,13.982-1.269,13.982-1.269l-8.386-3.083s8.842-7.93,16.3-9.25a50.2,50.2,0,0,1,12.076-.888s28.876-20.3,54.5-22.026,46.587,10.582,52.639,23.346,6.065,33.928,6.065,37.455v3.515s-9.393,0-11.647,5.291.926,12.333-2.8,14.1-10.238-2.2-13.042-6.166-.456-9.25-3.73-11.419-14.907,1.269-21.885-3.083-5.126-18.943-1.342-24.221,25.629-14.1,24.233-17.18-23.294,11.013-27.024,15.416-17.242,13.652-26.554,16.735A62.822,62.822,0,0,1,254.381,188.315Z" transform="translate(-132.86 -131.412)" fill="#263238" stroke="#263238" stroke-linecap="round" stroke-linejoin="round" stroke-width="0.988"/>
      <path id="Path_1755" data-name="Path 1755" d="M313.3,207.974c3.73-1.764.47-8.805,2.8-14.1s11.647-5.291,11.647-5.291v-3.515a131.81,131.81,0,0,0-2.59-26.822c-8.051,0-15.605,1.18-21.469,3.971-7.742,3.654-1.932,2.741,3.864,5.494s-10.641,3.654-22.234,9.135-10.641,10.417-10.641,10.417c6.977,4.415,18.624.888,21.885,3.083s.939,7.5,3.73,11.419S309.585,209.738,313.3,207.974Z" transform="translate(-104.671 -124.198)" fill="#fff" stroke="#8c8c8c" stroke-linecap="round" stroke-linejoin="round" stroke-width="0.988"/>
      <path id="Path_1756" data-name="Path 1756" d="M311.414,185.35a1.477,1.477,0,0,0-1.61.381L290.227,207.3a1.323,1.323,0,0,0-.209,1.464,1.478,1.478,0,0,0,2.409.325l17.564-19.362a8.8,8.8,0,0,1,1.422-4.377Z" transform="translate(-99.469 -116.939)" fill="#263238"/>
      <path id="Path_1757" data-name="Path 1757" d="M302.184,238.309c-9.849-3.007-31.13-.9-35.585,2.106,0,0-11.821,8.323-17.779,12.269a36.529,36.529,0,0,1,1.114,11.242c-.939,10.582-.939,23.359,6.521,29.525s27.95,5.722,43.327-5.291,16.37-33.915,16.37-33.915S312.046,241.329,302.184,238.309Z" transform="translate(-113.505 -103.07)" fill="#263238" stroke="#263238" stroke-linecap="round" stroke-linejoin="round" stroke-width="0.988"/>
      <path id="Path_1758" data-name="Path 1758" d="M256.62,251.829s2.952,6.23,15.511,6.23,16.424-14.617,16.424-14.617-10.627-4.568-19.322-2.741S256.62,251.829,256.62,251.829Z" transform="translate(-110.839 -102.151)" fill="#fff" stroke="#263238" stroke-linecap="round" stroke-linejoin="round" stroke-width="0.988"/>
      <path id="Path_1759" data-name="Path 1759" d="M245.349,211.288c.9,2.423.564,4.745-.765,5.189s-3.126-1.18-4.025-3.6-.564-4.758.765-5.189S244.4,208.852,245.349,211.288Z" transform="translate(-116.501 -110.929)" fill="#263238"/>
      <path id="Path_1760" data-name="Path 1760" d="M269.467,205.839c.9,2.423.55,4.745-.765,5.189s-3.126-1.167-4.025-3.6-.55-4.745.778-5.189S268.568,203.415,269.467,205.839Z" transform="translate(-108.255 -112.394)" fill="#263238"/>
      <path id="Path_1761" data-name="Path 1761" d="M222.91,220.088l91.243-16.748s2.8,15.429-2.321,18.943-25.629,6.179-31.21,5.735-12.076-12.688-12.076-12.688l-6.078,1.269a71.831,71.831,0,0,0,.47,7.93,51.86,51.86,0,0,1,.47,6.166v.444a35.962,35.962,0,0,1-13.941,4.758C240.622,237.268,229.431,240.351,222.91,220.088Z" transform="translate(-122.361 -112.078)" fill="none" stroke="#263238" stroke-linecap="round" stroke-linejoin="round" stroke-width="1.976"/>
      <line id="Line_23" data-name="Line 23" x1="0.617" y1="2.867" transform="translate(139.528 101.616)" fill="none" stroke="#263238" stroke-linecap="round" stroke-linejoin="round" stroke-width="1.976"/>
      <line id="Line_24" data-name="Line 24" x1="1.073" y1="2.867" transform="translate(145.15 100.385)" fill="none" stroke="#263238" stroke-linecap="round" stroke-linejoin="round" stroke-width="1.976"/>
      <path id="Path_1762" data-name="Path 1762" d="M230.9,206.2a1.327,1.327,0,0,0-.577.457l-8.266,11.977a1.307,1.307,0,0,0-.062,1.4,1.463,1.463,0,0,0,1.27.72,1.486,1.486,0,0,0,1.221-.622l8.051-11.711Z" transform="translate(-122.732 -111.309)" fill="#263238"/>
      <path id="Path_1763" data-name="Path 1763" d="M253.05,215.4s1.449,20.1,3.864,24.666,22.234,0,23.683-3.2-1.449-6.851-1.449-6.851h-4.831" transform="translate(-112.059 -108.836)" fill="none" stroke="#263238" stroke-linecap="round" stroke-linejoin="round" stroke-width="0.988"/>
      <path id="Path_1764" data-name="Path 1764" d="M248.037,203.743a9.453,9.453,0,0,0-8.588-.609c-4.441,2.106-6.991,6.61-8.266,6.61s-.631-7.8,4.455-10.81,11.754.9,13.029,2.4S249.3,204.39,248.037,203.743Z" transform="translate(-119.726 -113.559)" fill="#263238" stroke="#263238" stroke-linecap="round" stroke-linejoin="round" stroke-width="0.988"/>
      <path id="Path_1765" data-name="Path 1765" d="M275.146,196.122a9.153,9.153,0,0,0-7.876-3.261c-4.938.584-8.91,4.035-10.117,3.629s2.147-7.613,8.051-8.805,10.734,4.555,11.446,6.344S276.139,197.086,275.146,196.122Z" transform="translate(-110.741 -116.329)" fill="#263238" stroke="#263238" stroke-linecap="round" stroke-linejoin="round" stroke-width="0.988"/>
      <path id="Path_1766" data-name="Path 1766" d="M240.75,219.89s7.635-2.106,12.076-7.219" transform="translate(-116.263 -109.57)" fill="none" stroke="#263238" stroke-linecap="round" stroke-linejoin="round" stroke-width="0.988"/>
      <path id="Path_1767" data-name="Path 1767" d="M262.07,210.07s4.763,2.7,14.612,1.8" transform="translate(-108.976 -110.269)" fill="none" stroke="#263238" stroke-linecap="round" stroke-linejoin="round" stroke-width="0.988"/>
      <path id="Path_1768" data-name="Path 1768" d="M260.876,235.525a72.389,72.389,0,0,1-10.2,9.44c-4.441,2.994-9.527,3.3-9.2,5.405s11.754,6.344,20.328,3.6,12.076-6.915,12.076-6.915a25.475,25.475,0,0,0,18.785,5.075c11.124-1.5,21.939-13.221,23.2-15.923s-2.536,1.8-12.076.292A191.893,191.893,0,0,1,284.6,232.29s-3.368,2.411-10.989,4.212S262.178,235.728,260.876,235.525Z" transform="translate(-116.021 -104.296)" fill="#263238" stroke="#263238" stroke-linecap="round" stroke-linejoin="round" stroke-width="0.988"/>
      <path id="Path_1769" data-name="Path 1769" d="M250.35,186.063s9.057-11.648,20.3-5.481" transform="translate(-112.982 -118.679)" fill="none" stroke="#263238" stroke-linecap="round" stroke-linejoin="round" stroke-width="0.988"/>
      <path id="Path_1770" data-name="Path 1770" d="M206.937,385.093s-7.434.444-12.532-3.071-10.225-.888-10.734,2.626,4.173,10.15,9.742,12.295,19.51,1.764,22.811,2.208,8.359,7.9,18.1,11.419,25.092,2.639,25.092,2.639-.47-14.49-5.582-21.57-22.287-14.49-30.191-11.419a115.648,115.648,0,0,1-16.705,4.872Z" transform="translate(-135.787 -64.723)" fill="#fff" stroke="#263238" stroke-linecap="round" stroke-linejoin="round" stroke-width="0.988"/>
      <path id="Path_1771" data-name="Path 1771" d="M213.325,376.3s-6.038.444-8.829,3.959S192.42,403.094,192.42,408.8s3.247,12.295,5.568,9.224,2.737-13.183,4.6-17.992,11.15-19.324,12.546-20.212S214.667,375.929,213.325,376.3Z" transform="translate(-132.783 -65.595)" fill="#fff" stroke="#263238" stroke-linecap="round" stroke-linejoin="round" stroke-width="0.988"/>
      <path id="Path_1772" data-name="Path 1772" d="M223.224,375.12s-7.434-3.946-11.137-2.2-8.829,21.088-9.3,26.8,1.342,26.784,6.977,26.34,2.724-13.589,2.724-22.394,9.285-21.57,9.285-21.57Z" transform="translate(-129.263 -66.613)" fill="#fff" stroke="#263238" stroke-linecap="round" stroke-linejoin="round" stroke-width="0.988"/>
      <path id="Path_1773" data-name="Path 1773" d="M403.848,385.066s-1.865,4.834-31.586,7.461-96.14,6.585-97.536,6.585S244.079,380.676,235.72,375.4s-13.418-4.821-17.189-1.269-12.076,26.34-11.607,29.855,2.321,19.324,5.568,20.643,4.186-1.269,4.186-5.71-.939-19.324-.939-19.324l12.546-10.544s17.189,29.424,30.191,32.063a54.133,54.133,0,0,0,22.811,0s66.406,21.57,106.821,21.963,67.8,4.39,73.383-10.15-36.7-46.946-41.811-48.747S403.848,385.066,403.848,385.066Z" transform="translate(-127.831 -66.891)" fill="#fff" stroke="#263238" stroke-linecap="round" stroke-linejoin="round" stroke-width="0.988"/>
      <path id="Path_1774" data-name="Path 1774" d="M248.02,388.358s-10.734-8.349-13.928-7.9-13.418,7.029-17.658,9.224-11.607,7.017-16.249,13.17-.47,9.224,1.852,7.029,10.734-9.224,12.546-10.544,15.793-7.461,15.793-7.461l22.287,15.809" transform="translate(-130.846 -64.474)" fill="#fff" stroke="#263238" stroke-linecap="round" stroke-linejoin="round" stroke-width="0.988"/>
      <path id="Path_1775" data-name="Path 1775" d="M372.835,294.744s-17.645,8.97-18.114,26.1,3.261,74.656,3.261,74.656-6.038,8.78,1.852,14.058,53.417,30.743,59.455,22.394,13-64.557,13-104.524-7.9-38.825-13-45.854-14.4-9.224-14.4-9.224" transform="translate(-77.322 -93.528)" fill="#92e3a9" stroke="#263238" stroke-linecap="round" stroke-linejoin="round" stroke-width="0.988"/>
      <path id="Path_1776" data-name="Path 1776" d="M397.714,375.137s-30.66-9.668-35.3-9.224-5.112,7.029-10.734,13.17-5.126,11.546-3.274,12.434,25.266,5.164,40.59,20.1,15.162,31.149,20.744,30.718,6.038-8.349,10.734-21.087,10.211-22.394,6.494-31.619S397.714,375.137,397.714,375.137Z" transform="translate(-79.9 -68.382)" fill="#92e3a9" stroke="#263238" stroke-linecap="round" stroke-linejoin="round" stroke-width="0.988"/>
      <path id="Path_1777" data-name="Path 1777" d="M349.87,378.41s30.647-2.639,50.157,11.863" transform="translate(-78.966 -65.069)" fill="none" stroke="#263238" stroke-linecap="round" stroke-linejoin="round" stroke-width="0.988"/>
      <path id="Path_1778" data-name="Path 1778" d="M365.1,375.26s27.4,3.946,38.08,16.241" transform="translate(-73.76 -65.865)" fill="none" stroke="#263238" stroke-linecap="round" stroke-linejoin="round" stroke-width="0.988"/>
      <path id="Path_1779" data-name="Path 1779" d="M301.153,456.926h14.2c59.429-17.5,144.177-2.538,145.036-2.335a12.768,12.768,0,0,0,12.16-3.506,11.17,11.17,0,0,0,2.406-11.8,12.2,12.2,0,0,0-9.91-7.529c-3.878-.711-95.617-17-161.406,4.3a11.783,11.783,0,0,0-8.265,9.709,11.427,11.427,0,0,0,5.782,11.2Z" transform="translate(-97.62 -52.46)" fill="#fff" stroke="#263238" stroke-linecap="round" stroke-linejoin="round" stroke-width="0.988"/>
      <path id="Path_1780" data-name="Path 1780" d="M308.6,456.926h14.183c59.429-17.5,144.177-2.538,145.049-2.335a12.768,12.768,0,0,0,12.175-3.5,11.17,11.17,0,0,0,2.4-11.817,12.2,12.2,0,0,0-9.934-7.52c-3.864-.711-95.617-17-161.406,4.3a11.782,11.782,0,0,0-8.257,9.714,11.428,11.428,0,0,0,5.788,11.2Z" transform="translate(-95.075 -52.46)" fill="#263238" stroke="#263238" stroke-linecap="round" stroke-linejoin="round" stroke-width="0.988"/>
    </g>
    <g id="freepik--Ashtray--inject-257" transform="translate(407 407.639)">
      <path id="Path_1781" data-name="Path 1781" d="M348.86,450.9s11.754-2.906,10.976-18.918-1.53-27.673,10.734-32.037,40.039-8.742,40.8-24.031a42.813,42.813,0,0,0-2.16-14.858" transform="translate(-292.773 -321.676)" fill="none" stroke="#263238" stroke-linecap="round" stroke-linejoin="round" stroke-width="0.988"/>
      <path id="Path_1782" data-name="Path 1782" d="M365.38,424.142c.121-10.569,2.12-18.182,11.137-21.57,12.331-4.682,40.039-9.364,40.818-25.757s-8.48-22.623-1.543-39.016" transform="translate(-287.126 -327.929)" fill="none" stroke="#263238" stroke-linecap="round" stroke-linejoin="round" stroke-width="0.988"/>
      <path id="Path_1783" data-name="Path 1783" d="M350.73,437.214s20.785-3.121,20.02-20.3c-.081-1.687-.148-3.324-.215-4.923" transform="translate(-292.133 -307.986)" fill="none" stroke="#263238" stroke-linecap="round" stroke-linejoin="round" stroke-width="0.988"/>
      <path id="Path_1784" data-name="Path 1784" d="M404.29,336.25a34.628,34.628,0,0,1,8.239-6.23" transform="translate(-273.826 -330.02)" fill="none" stroke="#263238" stroke-linecap="round" stroke-linejoin="round" stroke-width="0.988"/>
      <path id="Path_1785" data-name="Path 1785" d="M345.8,414.024l6,5.443a49.556,49.556,0,0,0,0,6.471c.282,1.421,3.14,5.075,3.14,5.075s.939,3.362-1.65,4.39-5.756,2.449-5.944.571-1.02-2.906-2.04-5.824-1.771-4.39-1.087-5.684l.7-1.269L340,420.1S341.557,412.933,345.8,414.024Z" transform="translate(-295.801 -307.47)" fill="#fff" stroke="#263238" stroke-linecap="round" stroke-linejoin="round" stroke-width="0.988"/>
      <path id="Path_1786" data-name="Path 1786" d="M340,420.1l4.455,2.7c3.609-3.9,7.367-3.388,7.367-3.388l-6.025-5.392C341.557,412.933,340,420.1,340,420.1Z" transform="translate(-295.801 -307.47)" fill="#8f8f8f" stroke="#263238" stroke-linecap="round" stroke-linejoin="round" stroke-width="0.988"/>
      <path id="Path_1787" data-name="Path 1787" d="M318.59,436.131l3.864-4.111s5.8,0,7.246-1.827a32.092,32.092,0,0,1,9.661-7.308c3.381-1.37,8.212,2.284,11.11,2.741s6.709.914,6.709.914a6.3,6.3,0,0,1,0,5.481l-1.449,2.741-12.439-3.654s-5.8,0-8.695,1.827-3.381,5.075-6.709,5.075A41.261,41.261,0,0,1,318.59,436.131Z" transform="translate(-303.119 -305.14)" fill="#fff" stroke="#263238" stroke-linecap="round" stroke-linejoin="round" stroke-width="0.988"/>
      <path id="Path_1788" data-name="Path 1788" d="M344.459,425.624c-2.147-.343-5.367-2.449-8.279-2.944a10.121,10.121,0,0,1,1.033,6.6c-.121.634-.268,1.269-.429,1.84h.5l12.573,3.654,1.382-2.8a6.3,6.3,0,0,0,0-5.481S347.357,426.055,344.459,425.624Z" transform="translate(-297.107 -305.113)" fill="#8f8f8f" stroke="#263238" stroke-linecap="round" stroke-linejoin="round" stroke-width="0.988"/>
      <path id="Path_1789" data-name="Path 1789" d="M353.394,436.581l-3.864-4.111s-5.8,0-7.246-1.827a32.094,32.094,0,0,0-9.661-7.308c-3.395-1.37-8.225,2.284-11.124,2.741s-6.709.914-6.709.914a6.3,6.3,0,0,0,0,5.481l1.449,2.741,12.559-3.654s5.81,0,8.708,1.827,3.381,5.075,6.709,5.075a41.253,41.253,0,0,0,9.178-1.878Z" transform="translate(-304.633 -305.019)" fill="#fff" stroke="#263238" stroke-linecap="round" stroke-linejoin="round" stroke-width="0.988"/>
      <path id="Path_1790" data-name="Path 1790" d="M321.523,426.054c2.16-.343,5.367-2.436,8.279-2.944a10.229,10.229,0,0,0-1.033,6.6c.134.647.282,1.269.443,1.84h-.483L316.169,435.2l-1.449-2.741a6.3,6.3,0,0,1,0-5.481S318.625,426.51,321.523,426.054Z" transform="translate(-304.656 -304.997)" fill="#8f8f8f" stroke="#263238" stroke-linecap="round" stroke-linejoin="round" stroke-width="0.988"/>
      <path id="Path_1791" data-name="Path 1791" d="M347.407,432.4l4.831-6.344a58.433,58.433,0,0,0,6.709-.914c1.449-.457,4.831-3.654,4.831-3.654s3.381-1.37,4.831.914,3.381,5.075,1.449,5.481-2.9,1.37-5.8,2.741-4.347,2.284-5.8,1.827l-1.449-.457-2.415,5.075S346.87,436.534,347.407,432.4Z" transform="translate(-293.278 -305.543)" fill="#fff" stroke="#263238" stroke-linecap="round" stroke-linejoin="round" stroke-width="0.988"/>
      <path id="Path_1792" data-name="Path 1792" d="M354.653,435.929l2.187-4.555c-4.6-2.829-4.6-6.344-4.6-6.344l-4.831,6.344C346.87,435.472,354.653,435.929,354.653,435.929Z" transform="translate(-293.278 -304.481)" fill="#8f8f8f" stroke="#263238" stroke-linecap="round" stroke-linejoin="round" stroke-width="0.988"/>
      <path id="Path_1793" data-name="Path 1793" d="M363.282,426.427l7.943-2.3a55.819,55.819,0,0,0,5.958,3.159c1.449.47,6.186-.114,6.186-.114s3.569.85,3.247,3.5-.55,5.938-2.375,5.19-3.18-.584-6.36-1.167-4.924-.685-5.783-1.878l-.845-1.243-5.152,2.538S360.25,429.408,363.282,426.427Z" transform="translate(-288.141 -304.723)" fill="#fff" stroke="#263238" stroke-linecap="round" stroke-linejoin="round" stroke-width="0.988"/>
      <path id="Path_1794" data-name="Path 1794" d="M366.087,434.217l4.669-2.347c-1.838-4.9.47-7.74.47-7.74l-7.943,2.3C360.25,429.408,366.087,434.217,366.087,434.217Z" transform="translate(-288.141 -304.723)" fill="#8f8f8f" stroke="#263238" stroke-linecap="round" stroke-linejoin="round" stroke-width="0.988"/>
      <rect id="Rectangle_161" data-name="Rectangle 161" width="106.298" height="24.678" rx="3.12" transform="translate(0 127.794)" fill="#fff" stroke="#263238" stroke-linecap="round" stroke-linejoin="round" stroke-width="0.988"/>
      <path id="Path_1795" data-name="Path 1795" d="M369.61,430.68h11.969v9.2a4.822,4.822,0,0,1-4.951,4.682h-2.066a4.822,4.822,0,0,1-4.951-4.682Z" transform="translate(-285.68 -302.962)" fill="#fff" stroke="#263238" stroke-linecap="round" stroke-linejoin="round" stroke-width="0.988"/>
      <path id="Path_1796" data-name="Path 1796" d="M313.05,430.68h12.009v9.2a4.822,4.822,0,0,1-4.951,4.682h-2.08a4.822,4.822,0,0,1-4.951-4.682v-9.2Z" transform="translate(-305.013 -302.962)" fill="#fff" stroke="#263238" stroke-linecap="round" stroke-linejoin="round" stroke-width="0.988"/>
    </g>
    <g id="freepik--Typewriter--inject-257" transform="translate(56.36 453.431)">
      <path id="Path_1797" data-name="Path 1797" d="M121.61,375.19h35.41a52.721,52.721,0,0,1,8.266,24.183h-36.98Z" transform="translate(-19.807 -363.671)" fill="#d6d6d6" stroke="#263238" stroke-linecap="round" stroke-linejoin="round" stroke-width="0.988"/>
      <path id="Path_1798" data-name="Path 1798" d="M155.487,399.544s-9.393-29.994-24.152-31.1c-23.777-1.814-64.635,1.1-64.635,1.1s32.982,13.335,34.753,37.227h57.563Z" transform="translate(-38.576 -365.644)" fill="#d6d6d6" stroke="#263238" stroke-linecap="round" stroke-linejoin="round" stroke-width="0.988"/>
      <path id="Path_1799" data-name="Path 1799" d="M138.566,368.914a16.659,16.659,0,0,0-11.164,1.1c-5.287,2.779-17.028,18.334-17.028,18.334H45.74s15.27-12.777,28.178-18.334S121,365.526,138.566,368.914Z" transform="translate(-45.74 -366.111)" fill="#fff" stroke="#263238" stroke-linecap="round" stroke-linejoin="round" stroke-width="0.988"/>
      <path id="Path_1800" data-name="Path 1800" d="M77.985,390.64H172.77a20.146,20.146,0,0,1,15.793,7.435c7.608,9.554,22.663,25.566,41.6,30.9,17.256,4.859,29.238,4.948,35.8,4.327a5.558,5.558,0,0,1,4.163,1.371,4.94,4.94,0,0,1,1.673,3.857c-.282,6.344-1.275,15.657-4.629,19.895a22.729,22.729,0,0,1-13.5,7.778H72.121s-17.631-6.674-13.512-26.112S77.985,390.64,77.985,390.64Z" transform="translate(-41.555 -359.518)" fill="#263238" stroke="#263238" stroke-linecap="round" stroke-linejoin="round" stroke-width="0.988"/>
      <path id="Path_1801" data-name="Path 1801" d="M105.083,390.64h94.785a20.131,20.131,0,0,1,15.78,7.435c7.608,9.554,22.663,25.566,41.6,30.9,17.256,4.86,29.225,4.948,35.786,4.327a5.558,5.558,0,0,1,4.163,1.371,4.939,4.939,0,0,1,1.673,3.857c-.268,6.344-1.261,15.657-4.616,19.895a22.743,22.743,0,0,1-13.512,7.778H99.26s-17.618-6.674-13.512-26.112S105.083,390.64,105.083,390.64Z" transform="translate(-32.277 -359.518)" fill="#fff" stroke="#263238" stroke-linecap="round" stroke-linejoin="round" stroke-width="0.988"/>
      <path id="Path_1802" data-name="Path 1802" d="M13.619-.82a15.9,15.9,0,0,1,15.27,15.27A13.89,13.89,0,0,1,14.45,28.889,15.9,15.9,0,0,1-.82,13.619,13.89,13.89,0,0,1,13.619-.82Z" transform="translate(100.594 57.24) rotate(-45)" fill="#fff" stroke="#263238" stroke-linecap="round" stroke-width="0.988"/>
      <path id="Path_1803" data-name="Path 1803" d="M13.619-.82a15.9,15.9,0,0,1,15.27,15.27A13.89,13.89,0,0,1,14.45,28.889,15.9,15.9,0,0,1-.82,13.619,13.89,13.89,0,0,1,13.619-.82Z" transform="translate(105.297 57.233) rotate(-45)" fill="#263238" stroke="#263238" stroke-linecap="round" stroke-width="0.988"/>
    </g>
  </g>
</svg>
