<svg xmlns="http://www.w3.org/2000/svg" width="811.855" height="743.385" viewBox="0 0 811.855 743.385">
  <g id="Spreadsheets-amico" transform="translate(-8.41 -30.446)">
    <g id="freepik--Floor--inject-114" transform="translate(8.41 314.49)">
      <ellipse id="freepik--floor--inject-114-2" data-name="freepik--floor--inject-114" cx="405.928" cy="229.67" rx="405.928" ry="229.67" fill="#fafafa"/>
    </g>
    <g id="freepik--Shadows--inject-114" transform="translate(38.516 358.865)">
      <ellipse id="freepik--Shadow--inject-114" cx="81.324" cy="46.003" rx="81.324" ry="46.003" transform="translate(516.86 241.068)" fill="#e0e0e0"/>
      <path id="freepik--shadow--inject-114-2" data-name="freepik--shadow--inject-114" d="M95.761,495.583,29.079,457.861c-3.762-2.132-3.762-5.571,0-7.7L416.957,230.7a15.46,15.46,0,0,1,13.613,0l66.7,37.738c3.762,2.116,3.762,5.571,0,7.7L109.391,495.583a15.322,15.322,0,0,1-13.63,0Z" transform="translate(-26.258 -229.125)" fill="#e0e0e0"/>
    </g>
    <g id="freepik--Clouds--inject-114" transform="translate(64.346 59.193)">
      <path id="freepik--Cloud--inject-114" d="M130.012,55.942l-15.03,8.53c0-.661.118-1.306.118-1.951V58.24c0-7.62-5.449-10.712-12.2-6.893a23.412,23.412,0,0,0-7.254,6.843c-1.113-9.587-8.772-13.224-18.1-7.885C67.43,56.008,59.316,69.86,59.316,81.266v6.4a16.457,16.457,0,0,0,1.535,7.422l-12.533,7.091a14.623,14.623,0,0,0-6.747,11.472c0,4.232,3.036,5.951,6.747,3.835l81.695-46.235a14.607,14.607,0,0,0,6.747-11.472C136.76,55.545,133.791,53.826,130.012,55.942Z" transform="translate(-41.57 -47.837)" fill="#ebebeb"/>
      <path id="freepik--cloud--inject-114-2" data-name="freepik--cloud--inject-114" d="M167.492,76.6l-11.386,6.447a11.214,11.214,0,0,0,.1-1.488V78.252c0-5.753-4.116-8.083-9.193-5.207a17.477,17.477,0,0,0-5.482,5.157c-.843-7.224-6.629-9.918-13.664-5.934-7.591,4.3-13.765,14.761-13.765,23.357v4.843a12.51,12.51,0,0,0,1.164,5.587l-9.446,5.356a11.015,11.015,0,0,0-5.061,8.662c0,3.19,2.294,4.48,5.061,2.893l61.672-34.9a11.032,11.032,0,0,0,5.061-8.662C172.6,76.335,170.326,75.012,167.492,76.6Z" transform="translate(-0.914 -33.087)" fill="#ebebeb"/>
    </g>
    <g id="freepik--Device--inject-114" transform="translate(87.996 30.446)">
      <g id="freepik--Monitor--inject-114">
        <path id="Path_1107" data-name="Path 1107" d="M249.907,414.527l57.353-32.482c5.921-3.306,8.873-7.736,8.873-12.117v-7.8l-59.479-32.879a12.318,12.318,0,0,1-5.7-9.687V250.3L150.82,307V376.26a12.351,12.351,0,0,0,5.7,9.687l50.606,28.581C218.919,421.206,238.082,421.206,249.907,414.527Z" transform="translate(9.82 113.122)" fill="#263238"/>
        <path id="Path_1108" data-name="Path 1108" d="M174.848,370.385v7.786l-18.353-10.364a12.317,12.317,0,0,1-5.685-9.687V288.874l19.062-10.794c.4,4.744.827,9.654,1.231,14.431L157.726,300.1v54.12a12.236,12.236,0,0,0,5.7,9.687Z" transform="translate(9.813 131.263)"/>
        <path id="Path_1109" data-name="Path 1109" d="M154.91,367.928a12.318,12.318,0,0,0,5.7,9.687l43.673,24.646c11.808,6.695,30.988,6.695,42.813,0L304.451,369.8c11.808-6.612,11.808-17.522,0-24.217L260.744,320.9a12.269,12.269,0,0,1-5.7-9.687v-54.1l-100.116,56.7Z" transform="translate(12.63 117.569)" fill="#37474f"/>
        <path id="Path_1110" data-name="Path 1110" d="M272.367,327.5h0l-11.622-6.612a12.269,12.269,0,0,1-5.7-9.687V257.11l-100.132,56.7v54.12a12.318,12.318,0,0,0,5.7,9.687l11.42,6.447Z" transform="translate(12.63 117.569)" fill="#263238"/>
        <path id="Path_1111" data-name="Path 1111" d="M284.094,318v7.819c0,4.38-2.969,8.744-8.873,12.1l-57.353,32.465a43.7,43.7,0,0,1-20.428,4.959v-7.786a43.5,43.5,0,0,0,20.428-4.959l57.353-32.5C281.125,326.695,284.094,322.314,284.094,318Z" transform="translate(41.842 157.331)" fill="#455a64"/>
        <path id="Path_1112" data-name="Path 1112" d="M62.327,583.205a15.579,15.579,0,0,0,13.815-.248L463.379,363.866a15.332,15.332,0,0,0,7.135-12.1V43.792a14.959,14.959,0,0,0-6.747-11.852,15.579,15.579,0,0,0-13.815.248L62.765,251.213a15.381,15.381,0,0,0-7.135,12.1v308.04a14.956,14.956,0,0,0,6.7,11.852Z" transform="translate(-55.563 -30.446)" fill="#455a64"/>
        <path id="Path_1113" data-name="Path 1113" d="M70.689,579.64,457.926,360.565a15.382,15.382,0,0,0,7.135-12.1V40.492c0-4.463-3.188-6.265-7.135-4.033L70.705,255.533a15.381,15.381,0,0,0-7.135,12.1V575.606C63.57,580.07,66.758,581.822,70.689,579.64Z" transform="translate(-50.109 -27.145)" fill="#ba68c8"/>
        <path id="Path_1114" data-name="Path 1114" d="M70.689,579.64,457.926,360.565a15.382,15.382,0,0,0,7.135-12.1V40.492c0-4.463-3.188-6.265-7.135-4.033L70.705,255.533a15.381,15.381,0,0,0-7.135,12.1V575.606C63.57,580.07,66.758,581.822,70.689,579.64Z" transform="translate(-50.109 -27.145)" fill="#37474f"/>
        <path id="Path_1115" data-name="Path 1115" d="M75.124,385.346a15.688,15.688,0,0,1-12.786-.264,14.959,14.959,0,0,1-6.747-11.869V345.26l13.377,7.587V380.8C69.034,384.866,71.666,386.7,75.124,385.346Z" transform="translate(-55.59 175.133)" fill="#263238"/>
        <path id="Path_1116" data-name="Path 1116" d="M63.56,439.607v27.936c0,4.463,3.188,6.265,7.119,4.033L457.933,252.5a15.381,15.381,0,0,0,7.135-12.117V212.4Z" transform="translate(-50.116 88.373)" fill="#37474f"/>
        <path id="Path_1117" data-name="Path 1117" d="M63.57,439.541v28c0,4.463,3.188,6.265,7.119,4.033L457.926,252.5a15.381,15.381,0,0,0,7.135-12.117V212.4Z" transform="translate(-50.109 88.373)" opacity="0.2"/>
        <path id="Path_1118" data-name="Path 1118" d="M71.5,511.558V263.506a9.255,9.255,0,0,1,4.285-7.273L441.936,49.076c2.378-1.339,4.285-.248,4.285,2.413V299.558a9.255,9.255,0,0,1-4.285,7.273L75.717,513.988C73.406,515.326,71.5,514.235,71.5,511.558Z" transform="translate(-44.662 -18.655)" fill="#ba68c8"/>
        <path id="Path_1119" data-name="Path 1119" d="M71.5,511.558V263.506a9.255,9.255,0,0,1,4.285-7.273L441.936,49.076c2.378-1.339,4.285-.248,4.285,2.413V299.558a9.255,9.255,0,0,1-4.285,7.273L75.717,513.988C73.406,515.326,71.5,514.235,71.5,511.558Z" transform="translate(-44.662 -18.655)" opacity="0.3"/>
        <path id="Path_1120" data-name="Path 1120" d="M185.317,286.855a14.462,14.462,0,0,0-6.747,11.356c0,4.182,3,5.885,6.747,3.785a14.429,14.429,0,0,0,6.747-11.356C192.014,286.459,189.012,284.756,185.317,286.855Z" transform="translate(28.881 136.406)" fill="#455a64"/>
        <path id="Path_1121" data-name="Path 1121" d="M71.115,174.734a14.661,14.661,0,0,0-2.109,6.91V469.137L55.63,461.549V174.09a14.286,14.286,0,0,1,2.109-6.91Z" transform="translate(-55.563 58.843)" fill="#263238"/>
      </g>
    </g>
    <g id="freepik--Spreadsheets--inject-114" transform="translate(162.223 41.966)">
      <g id="freepik--Window--inject-114">
        <g id="freepik--window--inject-114-2" data-name="freepik--window--inject-114">
          <path id="Path_1122" data-name="Path 1122" d="M494.247,37.786a3.586,3.586,0,0,0-3.644.281L104.665,256.48a10.79,10.79,0,0,0-5.061,8.48V519.938a4.7,4.7,0,0,0,2.109,4.248c.81.43,5.061,2.876,6.376,3.554a2.918,2.918,0,0,0,2.9-.165l385.989-218.5a10.773,10.773,0,0,0,5.06-8.48V44.381a3.4,3.4,0,0,0-1.552-3.306A62.814,62.814,0,0,1,494.247,37.786Z" transform="translate(-99.593 -37.415)" fill="#ba68c8"/>
          <path id="Path_1123" data-name="Path 1123" d="M108.451,258.609,494.372,40.262c2.766-1.554,5.061-.281,5.061,2.843V299.323a10.773,10.773,0,0,1-5.061,8.48L108.451,526.15c-2.766,1.554-5.061-.975-5.061-4.1V267.089a10.773,10.773,0,0,1,5.061-8.48Z" transform="translate(-96.985 -35.989)" fill="#fafafa"/>
          <path id="Path_1124" data-name="Path 1124" d="M496.615,41.229h0c.928,0,1.08,1.157,1.08,1.851V299.3a9.091,9.091,0,0,1-4.167,7.042L107.607,524.77a1.556,1.556,0,0,1-.81.264c-.877,0-1.687-1.372-1.687-2.926V267.147a9.123,9.123,0,0,1,4.167-7.058L495.215,41.675a3.011,3.011,0,0,1,1.4-.446m0-1.653a4.725,4.725,0,0,0-2.244.661L108.451,258.667a10.773,10.773,0,0,0-5.061,8.48V522.109c0,2.479,1.4,4.579,3.374,4.579a3.305,3.305,0,0,0,1.687-.479l385.921-218.5a10.773,10.773,0,0,0,5.061-8.48V43.014c0-2.232-1.13-3.5-2.766-3.5Z" transform="translate(-96.985 -36.048)" fill="#e0e0e0"/>
          <path id="Path_1125" data-name="Path 1125" d="M101.742,428.014c.54.281,4.436,2.463,6.14,3.405a4.916,4.916,0,0,1-1.839-4.116V188.36l-6.41-3.67V423.766A4.761,4.761,0,0,0,101.742,428.014Z" transform="translate(-99.571 58.757)" fill="#f0f0f0"/>
          <path id="Path_1126" data-name="Path 1126" d="M499.382,43.007c0-3.091-2.26-4.347-5.061-2.794L108.451,258.643a10.773,10.773,0,0,0-5.061,8.48v16.018L499.382,59.091Z" transform="translate(-96.985 -36.024)" fill="#ba68c8"/>
          <g id="Group_31" data-name="Group 31" transform="translate(1.598)" opacity="0.4">
            <path id="Path_1127" data-name="Path 1127" d="M496.33,41.688,110.408,260.035a10.007,10.007,0,0,0-3.526,3.637l-6.343-3.6a9.856,9.856,0,0,1,3.475-3.587L489.953,38.068a3.6,3.6,0,0,1,3.627-.3c.894.546,5.061,2.86,6.106,3.405A3.739,3.739,0,0,0,496.33,41.688Z" transform="translate(-100.54 -37.415)" fill="#fff"/>
          </g>
          <path id="Path_1128" data-name="Path 1128" d="M99.63,192.948V177.029a9.955,9.955,0,0,1,1.535-4.959l6.359,3.587a9.774,9.774,0,0,0-1.484,4.86v16.018Z" transform="translate(-99.567 50.516)" opacity="0.15"/>
          <path id="Path_1129" data-name="Path 1129" d="M103.437,275.42l-.017,28.862L499.344,80.265V51.37Z" transform="translate(-96.964 -28.303)" fill="#ebebeb"/>
          <path id="Path_1130" data-name="Path 1130" d="M113.207,191.314,138.814,176.9v14.365l-25.624,14.5Z" transform="translate(-90.253 53.67)" fill="#e0e0e0"/>
          <path id="Path_1131" data-name="Path 1131" d="M132.13,177.544v5.686l12.77-7.24v-5.67Z" transform="translate(-77.244 49.374)" fill="#e0e0e0"/>
          <path id="Path_1132" data-name="Path 1132" d="M132.13,182.854v5.686l12.77-7.24v-5.67Z" transform="translate(-77.244 52.841)" fill="#e0e0e0"/>
          <path id="Path_1133" data-name="Path 1133" d="M143.49,170.984v5.686l12.77-7.224V163.76Z" transform="translate(-69.441 45.09)" fill="#e0e0e0"/>
          <path id="Path_1134" data-name="Path 1134" d="M143.49,176.294v5.686l12.77-7.224V169.07Z" transform="translate(-69.441 48.557)" fill="#e0e0e0"/>
          <path id="Path_1135" data-name="Path 1135" d="M154.84,164.424v5.686l12.77-7.224V157.2Z" transform="translate(-61.645 40.806)" fill="#e0e0e0"/>
          <path id="Path_1136" data-name="Path 1136" d="M154.84,169.734v5.686l12.77-7.224V162.51Z" transform="translate(-61.645 44.273)" fill="#e0e0e0"/>
          <path id="Path_1137" data-name="Path 1137" d="M188.91,144.754v5.686l12.77-7.224V137.53Z" transform="translate(-38.244 27.961)" fill="#e0e0e0"/>
          <path id="Path_1138" data-name="Path 1138" d="M188.91,150.08v5.67l12.77-7.224V142.84Z" transform="translate(-38.244 31.429)" fill="#e0e0e0"/>
          <path id="Path_1139" data-name="Path 1139" d="M200.27,138.21v5.67l12.77-7.224V130.97Z" transform="translate(-30.441 23.677)" fill="#e0e0e0"/>
          <path id="Path_1140" data-name="Path 1140" d="M200.27,143.52v5.67l12.77-7.224V136.28Z" transform="translate(-30.441 27.145)" fill="#e0e0e0"/>
          <path id="Path_1141" data-name="Path 1141" d="M211.62,131.644l.017,5.686,12.77-7.224V124.42Z" transform="translate(-22.645 19.4)" fill="#e0e0e0"/>
          <path id="Path_1142" data-name="Path 1142" d="M211.62,136.954l.017,5.686,12.77-7.24v-5.67Z" transform="translate(-22.645 22.868)" fill="#e0e0e0"/>
          <path id="Path_1143" data-name="Path 1143" d="M166.2,162.158l31.932-18.068v14.447L166.2,176.6Z" transform="translate(-53.843 32.245)" fill="#e0e0e0"/>
          <path id="Path_1144" data-name="Path 1144" d="M223,127.924,248.6,113.51v14.381l-25.624,14.5Z" transform="translate(-14.842 12.276)" fill="#e0e0e0"/>
          <path id="Path_1145" data-name="Path 1145" d="M241.91,114.154l.017,5.686,12.77-7.224V106.93Z" transform="translate(-1.84 7.979)" fill="#e0e0e0"/>
          <path id="Path_1146" data-name="Path 1146" d="M241.91,119.464l.017,5.686,12.77-7.224V112.24Z" transform="translate(-1.84 11.446)" fill="#e0e0e0"/>
          <path id="Path_1147" data-name="Path 1147" d="M253.27,107.61V113.3l12.77-7.24V100.37Z" transform="translate(5.963 3.695)" fill="#e0e0e0"/>
          <path id="Path_1148" data-name="Path 1148" d="M253.27,112.92v5.686l12.77-7.24V105.68Z" transform="translate(5.963 7.162)" fill="#e0e0e0"/>
          <path id="Path_1149" data-name="Path 1149" d="M264.63,101.05v5.686L277.4,99.5V93.81Z" transform="translate(13.766 -0.589)" fill="#e0e0e0"/>
          <path id="Path_1150" data-name="Path 1150" d="M264.63,106.354v5.686l12.77-7.24V99.13Z" transform="translate(13.766 2.885)" fill="#e0e0e0"/>
          <path id="Path_1151" data-name="Path 1151" d="M298.7,81.38v5.686l12.77-7.24V74.14Z" transform="translate(37.167 -13.434)" fill="#e0e0e0"/>
          <path id="Path_1152" data-name="Path 1152" d="M298.7,86.684V92.37l12.77-7.24V79.46Z" transform="translate(37.167 -9.96)" fill="#e0e0e0"/>
          <path id="Path_1153" data-name="Path 1153" d="M310.06,74.814V80.5l12.77-7.224V67.59Z" transform="translate(44.97 -17.711)" fill="#e0e0e0"/>
          <path id="Path_1154" data-name="Path 1154" d="M310.06,80.124V85.81l12.77-7.224V72.9Z" transform="translate(44.97 -14.243)" fill="#e0e0e0"/>
          <path id="Path_1155" data-name="Path 1155" d="M321.41,68.254V73.94L334.2,66.716V61.03Z" transform="translate(52.766 -21.995)" fill="#e0e0e0"/>
          <path id="Path_1156" data-name="Path 1156" d="M321.41,73.564V79.25L334.2,72.026V66.34Z" transform="translate(52.766 -18.527)" fill="#e0e0e0"/>
          <path id="Path_1157" data-name="Path 1157" d="M275.99,98.767,307.922,80.7V95.164L275.99,113.215Z" transform="translate(21.568 -9.15)" fill="#e0e0e0"/>
          <path id="Path_1158" data-name="Path 1158" d="M106.04,188.36l-6.41-3.67V213.6l6.393,3.62Z" transform="translate(-99.567 58.757)" fill="#e0e0e0"/>
          <path id="Path_1159" data-name="Path 1159" d="M277.57,98.762v1.074c0,1.653,1.215,2.38,2.716,1.537l77.6-43.888a5.9,5.9,0,0,0,2.716-4.628V51.8c0-1.653-1.215-2.4-2.716-1.537l-77.6,43.888a5.846,5.846,0,0,0-2.716,4.612Z" transform="translate(22.654 -29.261)" fill="#f5f5f5"/>
          <path id="Path_1160" data-name="Path 1160" d="M332.007,52.858V51.8c0-1.653-1.215-2.4-2.716-1.537L319.17,55.949h0v7.224h0l10.121-5.686a5.9,5.9,0,0,0,2.716-4.628Z" transform="translate(51.227 -29.262)" fill="#455a64"/>
        </g>
        <g id="freepik--spreadsheets--inject-114-2" data-name="freepik--spreadsheets--inject-114" transform="translate(12.107 61.467)">
          <path id="Path_1161" data-name="Path 1161" d="M107.21,292.164,490.382,75.42V89.834L139.126,288.577V476.442L107.21,494.493Z" transform="translate(-106.468 -74.065)" fill="#f0f0f0"/>
          <path id="Path_1162" data-name="Path 1162" d="M126.13,211.5l31.916-18.051v14.414L126.13,225.948Z" transform="translate(-93.472 3.011)" fill="#ba68c8"/>
          <path id="Path_1163" data-name="Path 1163" d="M126.13,281.431l31.916-18.051v14.414L126.13,295.878Z" transform="translate(-93.472 48.677)" fill="#ba68c8"/>
          <path id="Path_1164" data-name="Path 1164" d="M126.13,290.171l31.916-18.051v14.414L126.13,304.618Z" transform="translate(-93.472 54.384)" fill="#ba68c8"/>
          <path id="Path_1165" data-name="Path 1165" d="M126.13,290.171l31.916-18.051v14.414L126.13,304.618Z" transform="translate(-93.472 54.384)" fill="#fff" opacity="0.8"/>
          <path id="Path_1166" data-name="Path 1166" d="M239.69,215.861l31.915-18.051v14.414L239.69,230.308Z" transform="translate(-15.472 5.858)" fill="#ba68c8"/>
          <path id="Path_1167" data-name="Path 1167" d="M239.69,215.861l31.915-18.051v14.414L239.69,230.308Z" transform="translate(-15.472 5.858)" opacity="0.3"/>
          <path id="Path_1168" data-name="Path 1168" d="M239.69,224.6l31.915-18.051v14.414L239.69,239.048Z" transform="translate(-15.472 11.566)" fill="#ba68c8"/>
          <path id="Path_1169" data-name="Path 1169" d="M239.69,224.6l31.915-18.051v14.414L239.69,239.048Z" transform="translate(-15.472 11.566)" opacity="0.4"/>
          <path id="Path_1170" data-name="Path 1170" d="M239.69,233.351,271.605,215.3v14.414L239.69,247.8Z" transform="translate(-15.472 17.28)" fill="#ba68c8"/>
          <path id="Path_1171" data-name="Path 1171" d="M239.69,233.351,271.605,215.3v14.414L239.69,247.8Z" transform="translate(-15.472 17.28)" opacity="0.5"/>
          <path id="Path_1172" data-name="Path 1172" d="M239.69,242.091l31.915-18.051v14.414L239.69,256.538Z" transform="translate(-15.472 22.987)" fill="#ba68c8"/>
          <path id="Path_1173" data-name="Path 1173" d="M239.69,242.091l31.915-18.051v14.414L239.69,256.538Z" transform="translate(-15.472 22.987)" opacity="0.3"/>
          <path id="Path_1174" data-name="Path 1174" d="M220.78,156.851l31.9-18.051v72.253l-31.9,18.084Z" transform="translate(-28.46 -32.676)" fill="#ba68c8"/>
          <path id="Path_1175" data-name="Path 1175" d="M220.78,209.311l31.9-18.051V292.408l-31.9,18.084Z" transform="translate(-28.46 1.581)" fill="#ba68c8"/>
          <path id="Path_1176" data-name="Path 1176" d="M145.05,253.021l31.9-18.051v14.414l-31.9,18.084Z" transform="translate(-80.477 30.124)" fill="#ba68c8"/>
          <path id="Path_1177" data-name="Path 1177" d="M145.05,253.021l31.9-18.051v14.414l-31.9,18.084Z" transform="translate(-80.477 30.124)" opacity="0.3"/>
          <path id="Path_1178" data-name="Path 1178" d="M182.92,187.451,214.836,169.4v14.414L182.92,201.9Z" transform="translate(-54.465 -12.694)" fill="#ba68c8"/>
          <path id="Path_1179" data-name="Path 1179" d="M182.92,187.451,214.836,169.4v14.414L182.92,201.9Z" transform="translate(-54.465 -12.694)" fill="#fff" opacity="0.6"/>
          <path id="Path_1180" data-name="Path 1180" d="M277.57,185.261l31.9-18.051v14.414l-31.9,18.084Z" transform="translate(10.547 -14.124)" fill="#ba68c8"/>
          <path id="Path_1181" data-name="Path 1181" d="M277.57,185.261l31.9-18.051v14.414l-31.9,18.084Z" transform="translate(10.547 -14.124)" fill="#fff" opacity="0.8"/>
          <path id="Path_1182" data-name="Path 1182" d="M277.57,202.751l31.9-18.051v14.414L277.57,217.2Z" transform="translate(10.547 -2.703)" fill="#ba68c8"/>
          <path id="Path_1183" data-name="Path 1183" d="M107.158,292.054l-.388.215V496.384L491.055,278.93l.4-.215V74.6Zm382.767-28.647-30.364,17.175V267.9l30.364-17.158Zm-381.62,44.2,30.364-17.175v12.679l-30.364,17.175Zm190.009-20.762v12.679L267.95,316.7V304.022Zm-30.364,15.39V289.558l30.364-17.175v12.679Zm31.932-16.282,30.364-17.175v12.679l-30.364,17.175Zm0-1.785V271.507l30.364-17.191v12.7Zm0-14.447V257.093l30.364-17.175V252.6Zm0-14.464V242.6L330.246,225.4v12.679Zm-1.569.893L267.95,273.326V260.647l30.364-17.175Zm0,1.785v12.679L267.95,287.79V275.111Zm-31.932,30.746-30.364,17.175V293.178L266.381,276Zm0,1.769V303.13L236.018,320.3V307.626Zm0,14.464v12.679l-30.364,17.175V322.09Zm0,14.447v12.679l-30.364,17.175V336.537Zm1.569-.893,30.364-17.175v12.679L267.95,331.148Zm30.364-2.711v12.679L267.95,345.612V332.934Zm1.569-.893,30.364-17.175V310.37l-30.364,17.175Zm0-1.785V300.4l30.364-17.175v12.679Zm31.932-30.73,30.364-17.175v12.679L331.815,295.03Zm0-1.785V267.887l30.364-17.175v12.679Zm0-14.447V253.44l30.364-17.175v12.679Zm0-14.464V238.91l30.364-17.175v12.679Zm0-14.447V224.529l30.364-17.175v12.662Zm0-14.464V210.065l30.364-17.175v12.679Zm-1.569.893-30.364,17.175V228.132l30.364-17.175ZM298.314,241.7,267.95,258.878V246.2l30.364-17.175Zm-31.932,18.067-30.364,17.175V264.267l30.364-17.175Zm0,1.769v12.679l-30.364,17.175V278.715Zm-31.932,30.746-30.364,17.175v-12.7l30.364-17.175Zm0,1.785v12.612l-30.364,17.191V311.2Zm0,14.447V321.2l-30.364,17.175V325.693Zm0,14.464v12.662l-30.364,17.191V340.157Zm0,14.447v12.679l-30.364,17.175V354.621Zm0,14.464v12.646l-30.364,17.191V369.052Zm1.569-.893,30.364-17.175V346.5L236.018,363.68Zm30.364-2.727v12.679l-30.364,17.175V365.449Zm1.569-.893,30.364-17.175v12.679L267.95,360.06Zm31.932-18.068,30.364-17.175v12.728l-30.364,17.175Zm31.932-18.051,30.364-17.175v12.679l-30.364,17.175Zm0-1.785V296.766l30.364-17.175v12.679Zm31.932-30.746,30.364-17.175v12.679L363.747,291.41Zm0-1.769V264.284l30.364-17.175v12.679Zm0-14.464V249.82l30.364-17.175v12.679Zm0-14.447V235.373L394.111,218.2v12.679Zm0-14.464V220.909l30.364-17.175v12.679Zm0-14.447V206.461l30.364-17.175v12.679Zm0-14.464V192l30.364-17.175V187.5Zm0-14.447V177.55l30.364-17.175v12.679Zm-1.569.876L331.815,208.3V195.617l30.364-17.175Zm-31.932,18.051L299.882,226.33V213.668l30.364-17.191Zm-31.932,18.067L267.95,244.4V231.719l30.364-17.175Zm-31.932,18.067-30.364,17.175V249.787l30.364-17.175Zm-31.932,18.084-30.364,17.175V267.871L234.449,250.7Zm0,1.785v12.662l-30.364,17.191V282.335Zm-31.932,30.73-30.364,17.175V300.4l30.364-17.191Zm0,1.785v12.679l-30.364,17.175V314.85Zm0,14.447v12.745l-30.364,17.175V329.363Zm0,14.464v12.679L172.153,356.44V343.761Zm0,14.447v12.679l-30.364,17.175V358.225Zm0,14.464v12.679l-30.364,17.175V372.672Zm0,14.447v12.679L172.153,399.8V387.136Zm0,14.464v12.679l-30.364,17.175V401.583Zm1.569-.893,30.364-17.175V379.02l-30.364,17.175Zm30.364-2.711v12.679l-30.364,17.175V397.98Zm1.569-.893,30.364-17.175v12.679l-30.364,17.175Zm31.932-18.067,30.364-17.175v12.679L267.95,374.524Zm31.932-18.067L330.246,326.6v12.679l-30.364,17.175Zm31.932-18.068,30.364-17.175v12.679l-30.364,17.175Zm31.932-18.067,30.364-17.175v12.679l-30.364,17.175Zm0-1.769V293.2l30.364-17.175V288.7Zm31.865-30.746,30.364-17.175v12.679l-30.364,17.175Zm0-1.785V260.664l30.364-17.175v12.679Zm0-14.447V246.216l30.364-17.224V241.67Zm0-14.464V231.752l30.364-17.175v12.761Zm0-14.447V217.3l30.364-17.175v12.679Zm0-14.464V202.841l30.364-17.175v12.679Zm0-14.447V188.394l30.364-17.175V183.9Zm0-14.464V173.93l30.364-17.175v12.728Zm0-14.447v-12.6l30.364-17.175v12.679Zm0-14.464V145.019l30.364-17.175v12.679Zm-1.569.893L363.68,175.765V163.086l30.364-17.175Zm-31.932,18.067-30.364,17.175V181.153l30.364-17.175Zm-31.932,18.068L299.815,211.9V199.238l30.364-17.175Zm-31.865,18.067L267.95,229.967V217.288l30.364-17.175ZM266.381,230.86l-30.364,17.175V235.356l30.364-17.175Zm-31.932,18.051L204.085,266.1V253.423l30.364-17.175Zm-31.932,18.1-30.364,17.175V271.524l30.364-17.191Zm0,1.785v12.679L172.153,298.65V285.971Zm-31.932,30.746-30.364,17.175V304.039l30.364-17.175Zm0,1.769V313.99l-30.364,17.175V318.486Zm0,14.464v12.679l-30.364,17.175V332.95Zm0,14.447V342.9l-30.364,17.175V347.4Zm0,14.464v12.679l-30.364,17.092V361.779Zm0,14.447v12.679l-30.364,17.175V376.276Zm0,14.464v12.679l-30.364,17.175V390.773Zm0,14.447v12.679L140.221,417.9V405.22Zm0,14.464v12.679l-30.364,17.125V419.634Zm0,14.447v12.679L140.221,446.81V434.131Zm1.569-.876,30.364-17.191v12.679l-30.364,17.175Zm30.364-2.727v12.679l-30.364,17.175V430.495Zm1.569-.893,30.364-17.175v12.679l-30.364,17.175Zm31.932-18.167,30.364-17.175V389.8l-30.364,17.175Zm31.932-18.067,30.364-17.175V371.73L267.95,388.9Zm31.932-18.051,30.364-17.191v12.679l-30.364,17.175Zm31.932-18.067,30.364-17.175v12.679l-30.364,17.175Zm31.932-18.067,30.364-17.175v12.679l-30.364,17.175Zm31.865-18,30.364-17.191v12.679L395.612,316.7Zm0-1.785V289.575L425.976,272.4v12.679Zm32.051-30.73,30.364-17.191v12.679l-30.364,17.175Zm0-1.785V257.093l30.364-17.175V252.6Zm0-14.464V242.613l30.364-17.191V238.1Zm0-14.447V228.149l30.364-17.175v12.679Zm0-14.464V213.7l30.364-17.191v12.646Zm0-14.447V199.238l30.364-17.175v12.679Zm0-14.464V184.79L458.026,167.6v12.679Zm0-14.447V170.326l30.364-17.175V165.83Zm0-14.464V155.879l30.364-17.191V151.3Zm0-14.447V141.382l30.364-17.175v12.679Zm0-14.464V126.968l30.364-17.191v12.679Zm0-14.447V112.5l30.364-17.175v12.679Zm-1.586.893L395.713,143.25V130.571L426.077,113.4Zm-31.916,18.067L363.8,161.317V148.639l30.364-17.175Zm-31.932,18.051-30.364,17.191V166.706l30.364-17.175ZM330.3,180.261l-30.364,17.175V184.774L330.3,167.6Zm-31.932,18.067L268,215.5V202.841l30.364-17.175ZM266.432,216.4l-30.364,17.175V220.909l30.364-17.175ZM234.5,234.463l-30.364,17.175V238.91L234.5,221.735Zm-31.932,18.067L172.2,269.706V257.093L202.567,239.9ZM170.584,270.6l-30.364,17.175V275.095l30.364-17.175Zm0,1.769v12.679l-30.364,17.175V289.542Zm-62.279,49.706L138.669,304.9v12.679l-30.364,17.175Zm0,14.447,30.364-17.175v12.679L108.305,349.2Zm0,14.464,30.364-17.175v12.679l-30.364,17.175Zm0,14.447,30.364-17.175v12.679l-30.364,17.175Zm0,14.464,30.364-17.175V375.4l-30.364,17.175Zm0,14.447,30.364-17.175v12.679l-30.364,17.175Zm0,14.464,30.364-17.175v12.679l-30.364,17.175Zm0,14.447,30.364-17.175v12.679l-30.364,17.175Zm0,14.464,30.364-17.175v12.679L108.305,450.4Zm0,14.447,30.364-17.175v12.679l-30.364,17.175Zm0,14.464,30.364-17.175v12.613l-30.364,17.175Zm31.915-18.067,30.364-17.175v12.679l-30.364,17.175Zm30.364-2.727v12.629l-30.364,17.191V463.01Zm1.569-.893,30.364-17.175v12.646l-30.364,17.175Zm31.932-18.051,30.364-17.175v12.679L204.085,439.57Zm31.932-18.067,30.364-17.175v12.563l-30.364,17.175Zm31.932-18.068,30.364-17.175V386.21L267.95,403.385Zm31.932-18.067,30.364-17.175v12.629l-30.364,17.175Zm31.932-18.067,30.364-17.175v12.629L331.815,367.25Zm31.932-18.068,30.364-17.175v12.629l-30.364,17.175Zm31.865-18.067,30.364-17.175V313.94l-30.364,17.175Zm32.051-18.051,30.364-17.191v12.629l-30.364,17.175Zm0-1.785V285.971L458.026,268.8v12.679Zm62.279-49.69-30.364,17.175V253.457l30.364-17.175Zm0-14.464-30.364,17.175V238.993l30.364-17.158Zm0-14.447-30.4,17.208V224.578L489.908,207.4Zm0-14.464L459.578,222.76V210.081l30.364-17.175Zm0-14.447-30.364,17.175V195.634l30.364-17.175Zm0-14.464-30.364,17.175V181.17L489.942,164Zm0-14.447-30.4,17.175V166.723l30.364-17.175Zm0-14.464-30.364,17.175V152.259l30.364-17.175Zm0-14.447L459.578,150.49V137.811l30.364-17.175Zm0-14.464-30.364,17.175V123.348l30.364-17.175Zm0-14.447-30.4,17.142V108.9l30.364-17.175Zm0-14.464-30.364,17.175V94.453l30.364-17.175ZM138.652,275.987v12.679l-30.364,17.158V293.162Zm-30.364,205.09L138.652,463.9v12.629l-30.364,17.175ZM459.544,295V282.368l30.364-17.175v12.629Z" transform="translate(-106.77 -74.6)" fill="#e0e0e0"/>
          <path id="Path_1184" data-name="Path 1184" d="M258.61,156.387,386.39,84.15v72.286l-127.78,72.2Z" transform="translate(-2.476 -68.364)" fill="#fafafa"/>
          <path id="Path_1185" data-name="Path 1185" d="M258.1,230.64V156.469l.422-.231L387.567,83.29v74.187Zm1.687-73.212V227.78L385.88,156.519v-70.4Z" transform="translate(-2.826 -68.925)" fill="#e0e0e0"/>
          <path id="Path_1186" data-name="Path 1186" d="M262.685,196.2h-.2a.641.641,0,0,1-.388-.81L279.368,149.1a.635.635,0,0,1,.383-.36.653.653,0,0,1,.528.046l18.674,11.042,18.842-18.811a.651.651,0,0,1,.81,0l18.556,11.951L356,107.481a.635.635,0,0,1,.369-.343.653.653,0,0,1,.508.029l19.146,9.621a.608.608,0,0,1,.27.827.632.632,0,0,1-.843.264L356.9,108.572,338,154.145a.6.6,0,0,1-.4.347.584.584,0,0,1-.523,0l-18.724-12.084L299.526,161.2a.651.651,0,0,1-.776.1l-18.437-10.811-17,45.508A.666.666,0,0,1,262.685,196.2Z" transform="translate(-0.107 -53.377)" fill="#455a64"/>
          <path id="Path_1187" data-name="Path 1187" d="M273.453,131.487a4.149,4.149,0,0,0-1.923,3.306c0,1.207.86,1.653,1.923,1.091a4.165,4.165,0,0,0,1.923-3.306C275.376,131.371,274.516,130.858,273.453,131.487Z" transform="translate(6.398 -37.628)" fill="#ba68c8"/>
          <path id="Path_1188" data-name="Path 1188" d="M284.783,138.24a4.2,4.2,0,0,0-1.923,3.306c0,1.207.86,1.653,1.923,1.091a4.2,4.2,0,0,0,1.923-3.306C286.74,138.14,285.879,137.645,284.783,138.24Z" transform="translate(14.18 -33.207)" fill="#ba68c8"/>
          <path id="Path_1189" data-name="Path 1189" d="M296.153,126.65a4.2,4.2,0,0,0-1.923,3.306c0,1.207.86,1.653,1.923,1.091a4.165,4.165,0,0,0,1.923-3.306C298.076,126.55,297.216,126.055,296.153,126.65Z" transform="translate(21.99 -40.775)" fill="#ba68c8"/>
          <path id="Path_1190" data-name="Path 1190" d="M307.5,134.085a4.149,4.149,0,0,0-1.923,3.306c0,1.207.86,1.653,1.923,1.091a4.149,4.149,0,0,0,1.923-3.306C309.426,134.085,308.566,133.539,307.5,134.085Z" transform="translate(29.786 -35.895)" fill="#ba68c8"/>
          <path id="Path_1191" data-name="Path 1191" d="M318.853,106.2a4.149,4.149,0,0,0-1.923,3.306c0,1.207.86,1.653,1.923,1.091a4.165,4.165,0,0,0,1.923-3.306C320.776,106.047,319.916,105.584,318.853,106.2Z" transform="translate(37.582 -54.143)" fill="#ba68c8"/>
          <path id="Path_1192" data-name="Path 1192" d="M330.2,112.014a4.149,4.149,0,0,0-1.923,3.306c0,1.207.86,1.653,1.923,1.091a4.149,4.149,0,0,0,1.923-3.306C332.126,111.9,331.266,111.4,330.2,112.014Z" transform="translate(45.378 -50.34)" fill="#ba68c8"/>
        </g>
      </g>
    </g>
    <g id="freepik--Charts--inject-114" transform="translate(224.761 385.421)">
      <g id="freepik--charts--inject-114-2" data-name="freepik--charts--inject-114" transform="translate(218.557)">
        <path id="Path_1193" data-name="Path 1193" d="M379.7,245.19,345.73,264.415,379.7,283.639l33.974-19.225Z" transform="translate(-211.624 -245.19)" fill="#455a64"/>
        <path id="Path_1194" data-name="Path 1194" d="M399.844,256.8v76.452L365.87,352.477v-76.4Z" transform="translate(-197.791 -237.608)" fill="#37474f"/>
        <path id="Path_1195" data-name="Path 1195" d="M379.7,276.074v76.4L345.73,333.252V256.8Z" transform="translate(-211.624 -237.608)" fill="#263238"/>
        <path id="Path_1196" data-name="Path 1196" d="M353.2,280.55,319.23,299.775,353.2,319l33.973-19.225Z" transform="translate(-229.826 -222.099)" fill="#ba68c8"/>
        <path id="Path_1197" data-name="Path 1197" d="M353.2,280.55,319.23,299.775,353.2,319l33.973-19.225Z" transform="translate(-229.826 -222.099)" fill="#fff" opacity="0.3"/>
        <path id="Path_1198" data-name="Path 1198" d="M373.344,292.15v43.309L339.37,354.684V311.424Z" transform="translate(-215.993 -214.524)" fill="#ba68c8"/>
        <path id="Path_1199" data-name="Path 1199" d="M353.2,311.418v43.259L319.23,335.453V292.16Z" transform="translate(-229.826 -214.518)" fill="#ba68c8"/>
        <path id="Path_1200" data-name="Path 1200" d="M353.2,311.418v43.259L319.23,335.453V292.16Z" transform="translate(-229.826 -214.518)" opacity="0.1"/>
        <path id="Path_1201" data-name="Path 1201" d="M326.7,284.97,292.73,304.195,326.7,323.419l33.974-19.225Z" transform="translate(-248.028 -219.213)" fill="#ba68c8"/>
        <path id="Path_1202" data-name="Path 1202" d="M326.7,284.97,292.73,304.195,326.7,323.419l33.974-19.225Z" transform="translate(-248.028 -219.213)" fill="#fff" opacity="0.88"/>
        <path id="Path_1203" data-name="Path 1203" d="M346.844,296.58v61.277L312.87,377.082V315.838Z" transform="translate(-234.195 -211.631)" fill="#ba68c8"/>
        <path id="Path_1204" data-name="Path 1204" d="M346.844,296.58v61.277L312.87,377.082V315.838Z" transform="translate(-234.195 -211.631)" fill="#fff" opacity="0.75"/>
        <path id="Path_1205" data-name="Path 1205" d="M326.7,315.838v61.244L292.73,357.857V296.58Z" transform="translate(-248.028 -211.631)" fill="#ba68c8"/>
        <path id="Path_1206" data-name="Path 1206" d="M326.7,315.838v61.244L292.73,357.857V296.58Z" transform="translate(-248.028 -211.631)" fill="#fff" opacity="0.6"/>
        <path id="Path_1207" data-name="Path 1207" d="M300.2,324.25,266.23,343.475,300.2,362.7l33.974-19.225Z" transform="translate(-266.23 -193.562)" fill="#ba68c8"/>
        <path id="Path_1208" data-name="Path 1208" d="M300.2,324.25,266.23,343.475,300.2,362.7l33.974-19.225Z" transform="translate(-266.23 -193.562)" opacity="0.3"/>
        <path id="Path_1209" data-name="Path 1209" d="M320.344,335.85V357.5L286.37,376.729v-21.6Z" transform="translate(-252.397 -185.987)" fill="#ba68c8"/>
        <path id="Path_1210" data-name="Path 1210" d="M320.344,335.85V357.5L286.37,376.729v-21.6Z" transform="translate(-252.397 -185.987)" opacity="0.4"/>
        <path id="Path_1211" data-name="Path 1211" d="M300.2,355.124v21.6L266.23,357.5V335.85Z" transform="translate(-266.23 -185.987)" fill="#ba68c8"/>
        <path id="Path_1212" data-name="Path 1212" d="M300.2,355.124v21.6L266.23,357.5V335.85Z" transform="translate(-266.23 -185.987)" opacity="0.55"/>
      </g>
      <g id="freepik--charts--inject-114-3" data-name="freepik--charts--inject-114" transform="translate(0 190.058)">
        <path id="Path_1213" data-name="Path 1213" d="M181.822,418.954v12.613l-12.7-33.837V385.15h0Z" transform="translate(-114.375 -343.852)" fill="#263238"/>
        <path id="Path_1214" data-name="Path 1214" d="M176.66,412.65v12.6l52.394-17.819v-12.6Z" transform="translate(-109.196 -337.531)" fill="#37474f"/>
        <path id="Path_1215" data-name="Path 1215" d="M169.12,385.347l12.719,33.837,52.394-17.82C219.844,389.066,194.828,382.917,169.12,385.347Z" transform="translate(-114.375 -344.065)" fill="#455a64"/>
        <path id="Path_1216" data-name="Path 1216" d="M136.673,407a2.879,2.879,0,0,0,0,.38Z" transform="translate(-136.666 -329.584)" fill="#ba68c8"/>
        <path id="Path_1217" data-name="Path 1217" d="M198.865,420.425l-7.692,35.87c-31.764-3.042-54.722-18.778-54.452-36.78V407.25c0,17.853,22.891,33.441,54.469,36.449l5.33-24.647Z" transform="translate(-136.63 -329.42)" fill="#ba68c8"/>
        <path id="Path_1218" data-name="Path 1218" d="M198.865,420.425l-7.692,35.87c-31.764-3.042-54.722-18.778-54.452-36.78V407.25c0,17.853,22.891,33.441,54.469,36.449l5.33-24.647Z" transform="translate(-136.63 -329.42)" opacity="0.4"/>
        <path id="Path_1219" data-name="Path 1219" d="M172.48,446.117v12.6a103.321,103.321,0,0,0,38.663-5.24c14.979-5.091,25.556-13.224,29.79-22.762a22.425,22.425,0,0,0,1.957-8.794V408.891s-3.627-.281-7.878-4.711l-9.818,3.306L180.273,422.76Z" transform="translate(-112.067 -331.425)" fill="#ba68c8"/>
        <path id="Path_1220" data-name="Path 1220" d="M172.48,446.117v12.6a103.321,103.321,0,0,0,38.663-5.24c14.979-5.091,25.556-13.224,29.79-22.762a22.425,22.425,0,0,0,1.957-8.794V408.891s-3.627-.281-7.878-4.711l-9.818,3.306L180.273,422.76Z" transform="translate(-112.067 -331.425)" fill="#fff" opacity="0.6"/>
        <path id="Path_1221" data-name="Path 1221" d="M149.3,403.286l39.034,22.084v-12.6L149.3,390.69Z" transform="translate(-127.989 -340.234)" fill="#ba68c8"/>
        <path id="Path_1222" data-name="Path 1222" d="M149.3,403.286l39.034,22.084v-12.6L149.3,390.69Z" transform="translate(-127.989 -340.234)" opacity="0.1"/>
        <path id="Path_1223" data-name="Path 1223" d="M137.2,412.571c-4.268,19.687,19.753,37.722,53.98,40.995l7.776-35.871L153.782,392.14C144.268,397.942,138.887,404.637,137.2,412.571Z" transform="translate(-136.637 -339.287)" fill="#ba68c8"/>
        <path id="Path_1224" data-name="Path 1224" d="M137.2,412.571c-4.268,19.687,19.753,37.722,53.98,40.995l7.776-35.871L153.782,392.14C144.268,397.942,138.887,404.637,137.2,412.571Z" transform="translate(-136.637 -339.287)" opacity="0.3"/>
        <path id="Path_1225" data-name="Path 1225" d="M172.7,449.993l-.219,1.041a103.321,103.321,0,0,0,38.663-5.174c14.979-5.091,25.556-13.224,29.79-22.762,3.981-9.042,1.872-18.4-5.921-26.448l-9.818,3.306L180.273,415.23Z" transform="translate(-112.067 -336.342)" fill="#ba68c8"/>
        <path id="Path_1226" data-name="Path 1226" d="M172.7,449.993l-.219,1.041a103.321,103.321,0,0,0,38.663-5.174c14.979-5.091,25.556-13.224,29.79-22.762,3.981-9.042,1.872-18.4-5.921-26.448l-9.818,3.306L180.273,415.23Z" transform="translate(-112.067 -336.342)" fill="#fff" opacity="0.75"/>
        <path id="Path_1227" data-name="Path 1227" d="M149.3,394.033l39.034,22.084L176.863,385.57a81.125,81.125,0,0,0-27.563,8.464Z" transform="translate(-127.989 -343.578)" fill="#ba68c8"/>
        <path id="Path_1228" data-name="Path 1228" d="M176.733,420.2V407.6l-7.793,35.87v12.6Z" transform="translate(-114.499 -329.192)" fill="#ba68c8"/>
        <path id="Path_1229" data-name="Path 1229" d="M176.733,420.2V407.6l-7.793,35.87v12.6Z" transform="translate(-114.499 -329.192)" opacity="0.55"/>
        <path id="Path_1230" data-name="Path 1230" d="M206.542,373.71l-8.5,4.81,8.5,4.81,8.5-4.81Z" transform="translate(-94.511 -351.323)" fill="#ba68c8"/>
        <path id="Path_1231" data-name="Path 1231" d="M206.542,373.71l-8.5,4.81,8.5,4.81,8.5-4.81Z" transform="translate(-94.511 -351.323)" opacity="0.3"/>
        <path id="Path_1232" data-name="Path 1232" d="M211.582,376.62v4.827l-8.5,4.81V381.43Z" transform="translate(-91.049 -349.422)" fill="#ba68c8"/>
        <path id="Path_1233" data-name="Path 1233" d="M211.582,376.62v4.827l-8.5,4.81V381.43Z" transform="translate(-91.049 -349.422)" opacity="0.4"/>
        <path id="Path_1234" data-name="Path 1234" d="M206.542,381.43v4.827l-8.5-4.81V376.62Z" transform="translate(-94.511 -349.422)" fill="#ba68c8"/>
        <path id="Path_1235" data-name="Path 1235" d="M206.542,381.43v4.827l-8.5-4.81V376.62Z" transform="translate(-94.511 -349.422)" opacity="0.55"/>
        <path id="Path_1236" data-name="Path 1236" d="M211.382,378.818,242.893,361a7.421,7.421,0,0,1,6.6-.116c1.687.992,1.687,2.661-.219,3.736l-31.511,17.82a7.472,7.472,0,0,1-6.6.116C209.408,381.562,209.493,379.893,211.382,378.818Z" transform="translate(-86.362 -360.167)" fill="#e0e0e0"/>
        <path id="Path_1237" data-name="Path 1237" d="M217.9,380.27l-8.5,4.81,8.5,4.81,8.5-4.81Z" transform="translate(-86.708 -347.039)" fill="#ba68c8"/>
        <path id="Path_1238" data-name="Path 1238" d="M217.9,380.27l-8.5,4.81,8.5,4.81,8.5-4.81Z" transform="translate(-86.708 -347.039)" fill="#fff" opacity="0.88"/>
        <path id="Path_1239" data-name="Path 1239" d="M222.942,383.17V388l-8.5,4.81V388Z" transform="translate(-83.246 -345.145)" fill="#ba68c8"/>
        <path id="Path_1240" data-name="Path 1240" d="M222.942,383.17V388l-8.5,4.81V388Z" transform="translate(-83.246 -345.145)" fill="#fff" opacity="0.75"/>
        <path id="Path_1241" data-name="Path 1241" d="M217.9,388v4.81L209.4,388V383.17Z" transform="translate(-86.708 -345.145)" fill="#ba68c8"/>
        <path id="Path_1242" data-name="Path 1242" d="M217.9,388v4.81L209.4,388V383.17Z" transform="translate(-86.708 -345.145)" fill="#fff" opacity="0.6"/>
        <path id="Path_1243" data-name="Path 1243" d="M222.739,385.372l31.494-17.82a7.42,7.42,0,0,1,6.6-.132c1.771,1.008,1.687,2.678-.2,3.736l-31.511,17.853a7.472,7.472,0,0,1-6.6.116C220.816,388.116,220.816,386.446,222.739,385.372Z" transform="translate(-78.556 -355.893)" fill="#e0e0e0"/>
        <path id="Path_1244" data-name="Path 1244" d="M229.252,386.83l-8.5,4.81,8.519,4.81,8.5-4.81Z" transform="translate(-78.912 -342.755)" fill="#ba68c8"/>
        <path id="Path_1245" data-name="Path 1245" d="M229.252,386.83l-8.5,4.81,8.519,4.81,8.5-4.81Z" transform="translate(-78.912 -342.755)" fill="#fff" opacity="0.3"/>
        <path id="Path_1246" data-name="Path 1246" d="M234.3,389.73v4.827l-8.5,4.81v-4.81Z" transform="translate(-75.443 -340.861)" fill="#ba68c8"/>
        <path id="Path_1247" data-name="Path 1247" d="M229.269,394.557v4.81l-8.519-4.81V389.73Z" transform="translate(-78.912 -340.861)" fill="#ba68c8"/>
        <path id="Path_1248" data-name="Path 1248" d="M229.269,394.557v4.81l-8.519-4.81V389.73Z" transform="translate(-78.912 -340.861)" opacity="0.1"/>
        <path id="Path_1249" data-name="Path 1249" d="M234.089,391.942,265.6,374.106a7.471,7.471,0,0,1,6.6-.116c1.771,1.008,1.687,2.678-.2,3.736l-31.511,17.82a7.42,7.42,0,0,1-6.6.132C232.115,394.67,232.216,393,234.089,391.942Z" transform="translate(-70.76 -351.603)" fill="#e0e0e0"/>
        <path id="Path_1250" data-name="Path 1250" d="M240.612,393.38l-8.5,4.81,8.5,4.81,8.5-4.81Z" transform="translate(-71.109 -338.478)" fill="#455a64"/>
        <path id="Path_1251" data-name="Path 1251" d="M245.652,396.29v4.827l-8.5,4.81V401.1Z" transform="translate(-67.647 -336.577)" fill="#37474f"/>
        <path id="Path_1252" data-name="Path 1252" d="M240.612,401.1v4.827l-8.5-4.81V396.29Z" transform="translate(-71.109 -336.577)" fill="#263238"/>
        <path id="Path_1253" data-name="Path 1253" d="M245.449,398.5l31.511-17.836a7.472,7.472,0,0,1,6.6-.116c1.771.992,1.687,2.661-.219,3.736l-31.494,17.82a7.421,7.421,0,0,1-6.6.116C243.475,401.23,243.576,399.56,245.449,398.5Z" transform="translate(-62.957 -347.319)" fill="#e0e0e0"/>
      </g>
    </g>
    <g id="freepik--Character--inject-114" transform="translate(537.116 309.721)">
      <g id="freepik--character--inject-114-2" data-name="freepik--character--inject-114">
        <path id="Path_1254" data-name="Path 1254" d="M395.23,235.48c11.69,0,17.24,3.306,21.457,14.183s15.367,36.118,15.587,43.59c.236,7.753-25.3,31.259-24.325,30.862.27-.132-7.776-14.249-7.776-14.249l14.338-17.208L406.3,269.3Z" transform="translate(-271.422 -175.83)" fill="#ffa8a7"/>
        <path id="Path_1255" data-name="Path 1255" d="M416.608,397.213c.725.678.86,1.322.827,3.769s1.029,5.174-.253,7.455c-.945,1.653-5.836,2.876-8.316,1.653a25.355,25.355,0,0,1-5.735-5.042,39.608,39.608,0,0,0-5.061-4.744c-2.109-1.537-4.555-2.562-6.747-3.967a13.187,13.187,0,0,1-6.106-9.918,6.289,6.289,0,0,1,.776-3.769,4.439,4.439,0,0,1,4.4-1.422c2.378.38,10.442,4.794,12.3,6.05C405.12,388.832,415.865,396.518,416.608,397.213Z" transform="translate(-278.326 -80.734)" fill="#263238"/>
        <path id="Path_1256" data-name="Path 1256" d="M401.72,385.511c-.084,1.752-7.625-2.347-10.712-1.951h-.084c-2.885,1.355-.489,5.306,2.176,7.323s11.4,8.265,11.4,8.265l1.788-10.133Z" transform="translate(-275.28 -79.149)" fill="#ffa8a7"/>
        <path id="Path_1257" data-name="Path 1257" d="M395.8,402c1.4,0,2.024,4.5,2.294,7.951.186,2.678,1.232,7.058.253,9.025s-4.639,3.19-10.324,3.075c-3.694,0-9.463,2.3-13.411,4.4a20.616,20.616,0,0,1-12.786,1.57c-5.061-.645-10.256-3.587-11.049-5.637s.287-3.042,12.263-7.868c.118,0,12.652-5.405,18.556-11.571Z" transform="translate(-302.09 -67.09)" fill="#263238"/>
        <path id="Path_1258" data-name="Path 1258" d="M359.8,414.167c-1.687.661-3.087,1.256-4.352,1.785-.32,1.108.118,2.876,5.415,3.736,8.063,1.322,31.781-16.183,31.781-16.183s-3.374.926-4.032-.975H378.309C372.405,408.762,359.8,414.118,359.8,414.167Z" transform="translate(-298.798 -66.744)" fill="#ffa8a7"/>
        <path id="Path_1259" data-name="Path 1259" d="M433.228,407.2a98.414,98.414,0,0,0-2.328-22.927s1.417-29.523,1.569-48.07c.32-36.7-.388-42.086-8.671-57.856,0,0-48.362-5.538-50.4,17.555-2.53,28.763-5.482,76.882-5.415,90.585,0,10.2,1.248,21.258,1.822,44.384.371,14.877,1.957,35.738-.2,53.26,2.733,4.5,10.121,4.414,14.338.909,1.215-17.158,9.919-50.02,11.268-61.476a95.482,95.482,0,0,0-1.046-24.8s6.41-49,7.54-56.451a135.928,135.928,0,0,1,2.8,23.936c0,3.306,1.147,14.166,3.053,32.515,1.164,11.174,9.227,54.847,10.982,68.881,4.048,3.835,9.278,1.19,9.514-.463C429.4,450.065,433.228,417.9,433.228,407.2Z" transform="translate(-290.14 -148.215)" fill="#ffa8a7"/>
        <path id="Path_1260" data-name="Path 1260" d="M388,330.053l4.268-23.787a33.439,33.439,0,0,0,19.045-9.786s-2.564,9.5-15.182,12.745l-5.061,21.489-.843,19.621Z" transform="translate(-276.388 -135.996)" opacity="0.15"/>
        <path id="Path_1261" data-name="Path 1261" d="M380.78,232.034l2.007,21.555,19.331-1.141-1.484-23.919Z" transform="translate(-281.347 -180.369)" fill="#ffa8a7"/>
        <path id="Path_1262" data-name="Path 1262" d="M427.953,311.7a86.577,86.577,0,0,0-8.434-16.381c8.266-26.085,10.914-34.862,9.311-46.02-1.029-7.091-6.747-14.183-13.765-13.8h-5.3c-.3,4.959-14.321,5.174-19.635,1.769l-4.909.132c-3.458,1.207-15.182,18.183-16.531,29.341-1.063,9.108,6.241,17.01,6.241,17.01a87.158,87.158,0,0,1-.692,11.571v33.06s2.716,8.463,31.089,5.819c25.3-2.347,25.843-10.794,25.843-10.794A51.174,51.174,0,0,0,427.953,311.7Z" transform="translate(-289.722 -175.829)" fill="#ba68c8"/>
        <g id="Group_32" data-name="Group 32" transform="translate(78.865 59.652)" opacity="0.3">
          <path id="Path_1263" data-name="Path 1263" d="M427.953,311.7a86.577,86.577,0,0,0-8.434-16.381c8.266-26.085,10.914-34.862,9.311-46.02-1.029-7.091-6.747-14.183-13.765-13.8h-5.3c-.3,4.959-14.321,5.174-19.635,1.769l-4.909.132c-3.458,1.207-15.182,18.183-16.531,29.341-1.063,9.108,6.241,17.01,6.241,17.01a87.158,87.158,0,0,1-.692,11.571v33.06s2.716,8.463,31.089,5.819c25.3-2.347,25.843-10.794,25.843-10.794A51.174,51.174,0,0,0,427.953,311.7Z" transform="translate(-368.587 -235.481)"/>
        </g>
        <path id="Path_1264" data-name="Path 1264" d="M390.529,200.189a18.158,18.158,0,0,0-15.536,5.521c-9.885,10.91.962,18.944.962,18.944l14.575-24.465" transform="translate(-288.178 -198.973)" fill="#263238"/>
        <path id="Path_1265" data-name="Path 1265" d="M373.865,216.31s-4.3,6.331-3.745,7.009a10.227,10.227,0,0,0,3.273,1.389Z" transform="translate(-288.703 -188.349)" fill="#f28f8f"/>
        <path id="Path_1266" data-name="Path 1266" d="M385.729,204.824c-4.167,2.1-11.369,5.967-13.259,20.977-1.94,15.423,1.552,20.778,3.694,22.812,1.434,1.372,8.907,1.884,12.8.711,4.892-1.471,15.469-6.612,20.428-14.514,5.853-9.34,7.1-21.82.388-26.729C400.338,201.22,389.255,203.055,385.729,204.824Z" transform="translate(-287.444 -196.914)" fill="#ffa8a7"/>
        <path id="Path_1267" data-name="Path 1267" d="M381.618,225.042c-8.721-4.347-6.494-15.687-6.494-15.687s12.449-17.439,35.424-6.166c7.945,3.9,12.719,12.761,12.533,23.142h0a24.686,24.686,0,0,1-24.932,24.432h0a14.4,14.4,0,0,1-14.541-14.249v-.942l.742.231a7.477,7.477,0,0,0,6.748-1.769c3.829-3.306,4.285-9.571-.557-11.158s-7.355,3.967-7.355,3.967h0l-1.872,4.959a3.51,3.51,0,0,1,.3-6.761Z" transform="translate(-285.407 -199.395)" fill="#263238"/>
        <path id="Path_1268" data-name="Path 1268" d="M364.5,217.01,323.04,237.359l19.5,55.062,38.73-20.431Z" transform="translate(-321.007 -187.891)" fill="#ba68c8"/>
        <path id="Path_1269" data-name="Path 1269" d="M360.613,220.23,325.83,237.306,343.1,284.665l32.489-17.142Z" transform="translate(-319.09 -185.789)" fill="#f5f5f5"/>
        <path id="Path_1270" data-name="Path 1270" d="M349.578,224.065l-.641-1.653c-.354-.926-3.239-.413-6.444,1.141l-6.123,2.959c-3.188,1.554-5.5,3.57-5.145,4.513l.641,1.653Z" transform="translate(-315.41 -184.665)" opacity="0.15"/>
        <path id="Path_1271" data-name="Path 1271" d="M350.421,219.448c-.219-.6-1.468-.512-2.8.165l-2.4,1.207s-1.4-3.637-6.916-1.223-4.335,6.612-4.335,6.612l-2.547,1.322c-1.4.727-2.412,1.8-2.26,2.38l.287,1.074,21.373-10.464Z" transform="translate(-316.809 -186.742)" fill="#37474f"/>
        <path id="Path_1272" data-name="Path 1272" d="M346.328,220.933c-1.991.926-2.767,1.372-2.227,2.81s1.2,2.81,1.2,2.81l-9.446,4.645s-.742-2.083-1.08-2.876-1-1.207-2.5-.463l-.557-.6,14.912-7.125Z" transform="translate(-315.045 -185.848)" fill="#263238"/>
        <path id="Path_1273" data-name="Path 1273" d="M349.8,224.127l-.624-1.653c-.354-.926-3.239-.43-6.444,1.124l-6.123,2.975c-3.205,1.554-5.5,3.571-5.145,4.5l.624,1.653Z" transform="translate(-315.245 -184.627)" fill="#37474f"/>
        <path id="Path_1274" data-name="Path 1274" d="M398.461,236.643c-6.528-.1-10.475.463-19.382,13.423s-25.438,36.763-27.361,39.92c-2.7,4.3-3.374,10.893-1.113,14.877,2.041,3.752,5.651,5.058,15.924-5.637,7.591-7.918,23.616-28.944,23.616-28.944S402.544,247.619,398.461,236.643Z" transform="translate(-303.01 -175.076)" fill="#ffa8a7"/>
        <path id="Path_1275" data-name="Path 1275" d="M373.479,306.117c-5.381,1.653-25.134-21.39-30.617-28.316a80.872,80.872,0,0,0-15.418-15.34c-7.608-5.7-6.343-14.249-2.851-22.035,1.215-2.711,5.061-.876,5.061-.876l1.333,3.752,2.294,6.5c1.6,1.5,2.53,2,2.632,1.554.219-.827-1.113-4.314-1.029-7.935.118-4.347,3.188-1.438,4.082.1a53.6,53.6,0,0,1,3.154,7.257c1.484,3.918.776,7.835,2.632,10.53s28.677,24.514,28.677,24.514Z" transform="translate(-321.835 -173.569)" fill="#ffa8a7"/>
        <path id="Path_1276" data-name="Path 1276" d="M420.491,271.68s-18.91,10.943-45.394,0a373.828,373.828,0,0,0-4.808,41.127c-.945,17.555-3.02,55.227-3.02,55.227s7.81,8.943,35.711,7.124c26.821-1.653,31.544-8.6,31.544-8.6s0-33.837.2-48.632C434.913,299.021,432.214,288.739,420.491,271.68Z" transform="translate(-290.627 -152.191)" fill="#ba68c8"/>
        <path id="Path_1277" data-name="Path 1277" d="M420.491,271.68s-18.91,10.943-45.394,0a373.828,373.828,0,0,0-4.808,41.127c-.945,17.555-3.02,55.227-3.02,55.227s7.81,8.943,35.711,7.124c26.821-1.653,31.544-8.6,31.544-8.6s0-33.837.2-48.632C434.913,299.021,432.214,288.739,420.491,271.68Z" transform="translate(-290.627 -152.191)" opacity="0.5"/>
        <path id="Path_1278" data-name="Path 1278" d="M405.552,213.337l4.436-3.967a3.938,3.938,0,0,0-4.766-.714,3.77,3.77,0,0,0-1.8,4.384c-.54,0-1.1-.083-1.687-.083V247.8a18.37,18.37,0,0,0,18.471,18.183V231.041A18.275,18.275,0,0,0,405.552,213.337Z" transform="translate(-266.95 -193.674)" fill="#263238"/>
      </g>
    </g>
  </g>
</svg>
